{
	"asset":{
		"generator":"Khronos glTF Blender I/O v4.3.47",
		"version":"2.0"
	},
	"extensionsUsed":[
		"KHR_materials_specular"
	],
	"scene":0,
	"scenes":[
		{
			"name":"Scene",
			"nodes":[
				10,
				11,
				12
			]
		}
	],
	"nodes":[
		{
			"mesh":0,
			"name":"Object_10"
		},
		{
			"mesh":1,
			"name":"Object_11"
		},
		{
			"mesh":2,
			"name":"Object_8"
		},
		{
			"mesh":3,
			"name":"Object_9"
		},
		{
			"children":[
				0,
				1,
				2,
				3
			],
			"name":"amiga_500_2"
		},
		{
			"mesh":4,
			"name":"Object_13"
		},
		{
			"mesh":5,
			"name":"Object_14"
		},
		{
			"children":[
				5,
				6
			],
			"name":"commodore 1351 (mouse)_3",
			"translation":[
				3.6418468952178955,
				0.0643036961555481,
				0.1901247501373291
			]
		},
		{
			"children":[
				4,
				7
			],
			"name":"GLTF_SceneRootNode",
			"rotation":[
				0.70710688829422,
				0,
				0,
				0.7071066498756409
			]
		},
		{
			"children":[
				8
			],
			"name":"root"
		},
		{
			"children":[
				9
			],
			"name":"Sketchfab_model",
			"rotation":[
				-0.70710688829422,
				0,
				0,
				0.7071066498756409
			]
		},
		{
			"mesh":6,
			"name":"Object_4"
		},
		{
			"mesh":7,
			"name":"Object_6"
		}
	],
	"materials":[
		{
			"doubleSided":true,
			"name":"amiga500_keyboard_mat",
			"normalTexture":{
				"index":0
			},
			"pbrMetallicRoughness":{
				"baseColorTexture":{
					"index":1
				},
				"metallicRoughnessTexture":{
					"index":2
				}
			}
		},
		{
			"doubleSided":true,
			"name":"amiga500_plugs_mat",
			"pbrMetallicRoughness":{
				"baseColorTexture":{
					"index":3
				},
				"metallicFactor":0,
				"metallicRoughnessTexture":{
					"index":4
				}
			}
		},
		{
			"doubleSided":true,
			"name":"amiga500_body_mat",
			"normalTexture":{
				"index":5
			},
			"pbrMetallicRoughness":{
				"baseColorTexture":{
					"index":6
				},
				"metallicRoughnessTexture":{
					"index":7
				}
			}
		},
		{
			"doubleSided":true,
			"name":"amiga500_details_mat",
			"normalTexture":{
				"index":8
			},
			"pbrMetallicRoughness":{
				"baseColorTexture":{
					"index":9
				},
				"metallicRoughnessTexture":{
					"index":10
				}
			}
		},
		{
			"doubleSided":true,
			"name":"amiga500_mouse_mat",
			"normalTexture":{
				"index":11
			},
			"pbrMetallicRoughness":{
				"baseColorTexture":{
					"index":12
				},
				"metallicRoughnessTexture":{
					"index":13
				}
			}
		},
		{
			"alphaMode":"BLEND",
			"doubleSided":true,
			"emissiveFactor":[
				0.8990503549575806,
				0.8990503549575806,
				0.8990503549575806
			],
			"emissiveTexture":{
				"index":14
			},
			"extensions":{
				"KHR_materials_specular":{
					"specularFactor":0
				}
			},
			"name":"amiga500_logo_mat",
			"pbrMetallicRoughness":{
				"baseColorTexture":{
					"index":15
				},
				"metallicFactor":0,
				"roughnessFactor":0
			}
		}
	],
	"meshes":[
		{
			"name":"Object_4",
			"primitives":[
				{
					"attributes":{
						"POSITION":0,
						"NORMAL":1,
						"TEXCOORD_0":2,
						"TEXCOORD_1":3,
						"TEXCOORD_2":4,
						"TEXCOORD_3":5
					},
					"indices":6,
					"material":0
				}
			]
		},
		{
			"name":"Object_5",
			"primitives":[
				{
					"attributes":{
						"POSITION":7,
						"NORMAL":8,
						"TEXCOORD_0":9,
						"TEXCOORD_1":10,
						"TEXCOORD_2":11
					},
					"indices":12,
					"material":1
				}
			]
		},
		{
			"name":"Object_2",
			"primitives":[
				{
					"attributes":{
						"POSITION":13,
						"NORMAL":14,
						"TEXCOORD_0":15,
						"TEXCOORD_1":16,
						"TEXCOORD_2":17,
						"TEXCOORD_3":18
					},
					"indices":19,
					"material":2
				}
			]
		},
		{
			"name":"Object_3",
			"primitives":[
				{
					"attributes":{
						"POSITION":20,
						"NORMAL":21,
						"TEXCOORD_0":22,
						"TEXCOORD_1":23,
						"TEXCOORD_2":24,
						"TEXCOORD_3":25
					},
					"indices":26,
					"material":3
				}
			]
		},
		{
			"name":"Object_6",
			"primitives":[
				{
					"attributes":{
						"POSITION":27,
						"NORMAL":28,
						"TEXCOORD_0":29,
						"TEXCOORD_1":30,
						"TEXCOORD_2":31,
						"TEXCOORD_3":32
					},
					"indices":33,
					"material":4
				}
			]
		},
		{
			"name":"Object_7",
			"primitives":[
				{
					"attributes":{
						"POSITION":34,
						"NORMAL":35,
						"TEXCOORD_0":36,
						"TEXCOORD_1":37,
						"TEXCOORD_2":38,
						"TEXCOORD_3":39
					},
					"indices":40,
					"material":3
				}
			]
		},
		{
			"name":"Object_0",
			"primitives":[
				{
					"attributes":{
						"POSITION":41,
						"NORMAL":42,
						"TEXCOORD_0":43
					},
					"indices":44,
					"material":5
				}
			]
		},
		{
			"name":"Object_1",
			"primitives":[
				{
					"attributes":{
						"POSITION":45,
						"NORMAL":46,
						"TEXCOORD_0":47
					},
					"indices":48,
					"material":5
				}
			]
		}
	],
	"textures":[
		{
			"sampler":0,
			"source":0
		},
		{
			"sampler":0,
			"source":1
		},
		{
			"sampler":0,
			"source":2
		},
		{
			"sampler":0,
			"source":3
		},
		{
			"sampler":0,
			"source":4
		},
		{
			"sampler":0,
			"source":5
		},
		{
			"sampler":0,
			"source":6
		},
		{
			"sampler":0,
			"source":7
		},
		{
			"sampler":0,
			"source":8
		},
		{
			"sampler":0,
			"source":9
		},
		{
			"sampler":0,
			"source":10
		},
		{
			"sampler":0,
			"source":11
		},
		{
			"sampler":0,
			"source":12
		},
		{
			"sampler":0,
			"source":13
		},
		{
			"sampler":0,
			"source":14
		},
		{
			"sampler":0,
			"source":15
		}
	],
	"images":[
		{
			"mimeType":"image/png",
			"name":"amiga500_keyboard_mat_normal.png",
			"uri":"textures/amiga500_keyboard_mat_normal.png"
		},
		{
			"mimeType":"image/jpeg",
			"name":"amiga500_keyboard_mat_baseColor.jpeg",
			"uri":"textures/amiga500_keyboard_mat_baseColor.jpeg"
		},
		{
			"mimeType":"image/png",
			"name":"amiga500_keyboard_mat_metallicRoughness.png",
			"uri":"textures/amiga500_keyboard_mat_metallicRoughness.png"
		},
		{
			"mimeType":"image/jpeg",
			"name":"amiga500_plugs_mat_baseColor.jpeg",
			"uri":"textures/amiga500_plugs_mat_baseColor.jpeg"
		},
		{
			"mimeType":"image/png",
			"name":"amiga500_plugs_mat_metallicRoughness.png",
			"uri":"textures/amiga500_plugs_mat_metallicRoughness.png"
		},
		{
			"mimeType":"image/png",
			"name":"amiga500_body_mat_normal.png",
			"uri":"textures/amiga500_body_mat_normal.png"
		},
		{
			"mimeType":"image/jpeg",
			"name":"amiga500_body_mat_baseColor.jpeg",
			"uri":"textures/amiga500_body_mat_baseColor.jpeg"
		},
		{
			"mimeType":"image/png",
			"name":"amiga500_body_mat_metallicRoughness.png",
			"uri":"textures/amiga500_body_mat_metallicRoughness.png"
		},
		{
			"mimeType":"image/png",
			"name":"amiga500_details_mat_normal.png",
			"uri":"textures/amiga500_details_mat_normal.png"
		},
		{
			"mimeType":"image/jpeg",
			"name":"amiga500_details_mat_baseColor.jpeg",
			"uri":"textures/amiga500_details_mat_baseColor.jpeg"
		},
		{
			"mimeType":"image/png",
			"name":"amiga500_details_mat_metallicRoughness.png",
			"uri":"textures/amiga500_details_mat_metallicRoughness.png"
		},
		{
			"mimeType":"image/png",
			"name":"amiga500_mouse_mat_normal.png",
			"uri":"textures/amiga500_mouse_mat_normal.png"
		},
		{
			"mimeType":"image/jpeg",
			"name":"amiga500_mouse_mat_baseColor.jpeg",
			"uri":"textures/amiga500_mouse_mat_baseColor.jpeg"
		},
		{
			"mimeType":"image/png",
			"name":"amiga500_mouse_mat_metallicRoughness.png",
			"uri":"textures/amiga500_mouse_mat_metallicRoughness.png"
		},
		{
			"mimeType":"image/png",
			"name":"amiga500_logo_mat_emissive.png",
			"uri":"textures/amiga500_logo_mat_emissive.png"
		},
		{
			"mimeType":"image/png",
			"name":"amiga500_logo_mat_baseColor.png",
			"uri":"textures/amiga500_logo_mat_baseColor.png"
		}
	],
	"accessors":[
		{
			"bufferView":0,
			"componentType":5126,
			"count":10850,
			"max":[
				2.2750093936920166,
				0.42751505970954895,
				1.4489916563034058
			],
			"min":[
				-2.2734522819519043,
				-0.04029121249914169,
				0.22368597984313965
			],
			"type":"VEC3"
		},
		{
			"bufferView":1,
			"componentType":5126,
			"count":10850,
			"type":"VEC3"
		},
		{
			"bufferView":2,
			"componentType":5126,
			"count":10850,
			"type":"VEC2"
		},
		{
			"bufferView":3,
			"componentType":5126,
			"count":10850,
			"type":"VEC2"
		},
		{
			"bufferView":4,
			"componentType":5126,
			"count":10850,
			"type":"VEC2"
		},
		{
			"bufferView":5,
			"componentType":5126,
			"count":10850,
			"type":"VEC2"
		},
		{
			"bufferView":6,
			"componentType":5123,
			"count":43785,
			"type":"SCALAR"
		},
		{
			"bufferView":7,
			"componentType":5126,
			"count":88,
			"max":[
				2.320751428604126,
				0.3871498107910156,
				1.6026151180267334
			],
			"min":[
				-2.325324773788452,
				-0.11155721545219421,
				-1.1827270984649658
			],
			"type":"VEC3"
		},
		{
			"bufferView":8,
			"componentType":5126,
			"count":88,
			"type":"VEC3"
		},
		{
			"bufferView":9,
			"componentType":5126,
			"count":88,
			"type":"VEC2"
		},
		{
			"bufferView":10,
			"componentType":5126,
			"count":88,
			"type":"VEC2"
		},
		{
			"bufferView":11,
			"componentType":5126,
			"count":88,
			"type":"VEC2"
		},
		{
			"bufferView":12,
			"componentType":5123,
			"count":138,
			"type":"SCALAR"
		},
		{
			"bufferView":13,
			"componentType":5126,
			"count":9400,
			"max":[
				2.3475847244262695,
				0.4327438473701477,
				1.721038579940796
			],
			"min":[
				-2.3475847244262695,
				-0.1739744246006012,
				-1.6039912700653076
			],
			"type":"VEC3"
		},
		{
			"bufferView":14,
			"componentType":5126,
			"count":9400,
			"type":"VEC3"
		},
		{
			"bufferView":15,
			"componentType":5126,
			"count":9400,
			"type":"VEC2"
		},
		{
			"bufferView":16,
			"componentType":5126,
			"count":9400,
			"type":"VEC2"
		},
		{
			"bufferView":17,
			"componentType":5126,
			"count":9400,
			"type":"VEC2"
		},
		{
			"bufferView":18,
			"componentType":5126,
			"count":9400,
			"type":"VEC2"
		},
		{
			"bufferView":19,
			"componentType":5123,
			"count":25548,
			"type":"SCALAR"
		},
		{
			"bufferView":20,
			"componentType":5126,
			"count":19091,
			"max":[
				2.3615198135375977,
				0.4044528603553772,
				1.4726227521896362
			],
			"min":[
				-2.275439977645874,
				-0.19594620168209076,
				-1.5702521800994873
			],
			"type":"VEC3"
		},
		{
			"bufferView":21,
			"componentType":5126,
			"count":19091,
			"type":"VEC3"
		},
		{
			"bufferView":22,
			"componentType":5126,
			"count":19091,
			"type":"VEC2"
		},
		{
			"bufferView":23,
			"componentType":5126,
			"count":19091,
			"type":"VEC2"
		},
		{
			"bufferView":24,
			"componentType":5126,
			"count":19091,
			"type":"VEC2"
		},
		{
			"bufferView":25,
			"componentType":5126,
			"count":19091,
			"type":"VEC2"
		},
		{
			"bufferView":26,
			"componentType":5123,
			"count":63420,
			"type":"SCALAR"
		},
		{
			"bufferView":27,
			"componentType":5126,
			"count":6774,
			"max":[
				0.4296128749847412,
				0.10364663600921631,
				0.6623861789703369
			],
			"min":[
				-2.4172449111938477,
				-0.2600022554397583,
				-2.8935632705688477
			],
			"type":"VEC3"
		},
		{
			"bufferView":28,
			"componentType":5126,
			"count":6774,
			"type":"VEC3"
		},
		{
			"bufferView":29,
			"componentType":5126,
			"count":6774,
			"type":"VEC2"
		},
		{
			"bufferView":30,
			"componentType":5126,
			"count":6774,
			"type":"VEC2"
		},
		{
			"bufferView":31,
			"componentType":5126,
			"count":6774,
			"type":"VEC2"
		},
		{
			"bufferView":32,
			"componentType":5126,
			"count":6774,
			"type":"VEC2"
		},
		{
			"bufferView":33,
			"componentType":5123,
			"count":27510,
			"type":"SCALAR"
		},
		{
			"bufferView":34,
			"componentType":5126,
			"count":230,
			"max":[
				0.14665007591247559,
				-0.21836045384407043,
				-0.5510905385017395
			],
			"min":[
				-0.14700913429260254,
				-0.23684042692184448,
				-0.6016464829444885
			],
			"type":"VEC3"
		},
		{
			"bufferView":35,
			"componentType":5126,
			"count":230,
			"type":"VEC3"
		},
		{
			"bufferView":36,
			"componentType":5126,
			"count":230,
			"type":"VEC2"
		},
		{
			"bufferView":37,
			"componentType":5126,
			"count":230,
			"type":"VEC2"
		},
		{
			"bufferView":38,
			"componentType":5126,
			"count":230,
			"type":"VEC2"
		},
		{
			"bufferView":39,
			"componentType":5126,
			"count":230,
			"type":"VEC2"
		},
		{
			"bufferView":40,
			"componentType":5123,
			"count":864,
			"type":"SCALAR"
		},
		{
			"bufferView":41,
			"componentType":5126,
			"count":4,
			"max":[
				1,
				0,
				0.5
			],
			"min":[
				-1,
				0,
				-0.5
			],
			"type":"VEC3"
		},
		{
			"bufferView":42,
			"componentType":5126,
			"count":4,
			"type":"VEC3"
		},
		{
			"bufferView":43,
			"componentType":5126,
			"count":4,
			"type":"VEC2"
		},
		{
			"bufferView":44,
			"componentType":5123,
			"count":6,
			"type":"SCALAR"
		},
		{
			"bufferView":45,
			"componentType":5126,
			"count":4,
			"max":[
				1,
				0,
				0.5
			],
			"min":[
				-1,
				0,
				-0.5
			],
			"type":"VEC3"
		},
		{
			"bufferView":46,
			"componentType":5126,
			"count":4,
			"type":"VEC3"
		},
		{
			"bufferView":47,
			"componentType":5126,
			"count":4,
			"type":"VEC2"
		},
		{
			"bufferView":48,
			"componentType":5123,
			"count":6,
			"type":"SCALAR"
		}
	],
	"bufferViews":[
		{
			"buffer":0,
			"byteLength":130200,
			"byteOffset":0,
			"target":34962
		},
		{
			"buffer":0,
			"byteLength":130200,
			"byteOffset":130200,
			"target":34962
		},
		{
			"buffer":0,
			"byteLength":86800,
			"byteOffset":260400,
			"target":34962
		},
		{
			"buffer":0,
			"byteLength":86800,
			"byteOffset":347200,
			"target":34962
		},
		{
			"buffer":0,
			"byteLength":86800,
			"byteOffset":434000,
			"target":34962
		},
		{
			"buffer":0,
			"byteLength":86800,
			"byteOffset":520800,
			"target":34962
		},
		{
			"buffer":0,
			"byteLength":87570,
			"byteOffset":607600,
			"target":34963
		},
		{
			"buffer":0,
			"byteLength":1056,
			"byteOffset":695172,
			"target":34962
		},
		{
			"buffer":0,
			"byteLength":1056,
			"byteOffset":696228,
			"target":34962
		},
		{
			"buffer":0,
			"byteLength":704,
			"byteOffset":697284,
			"target":34962
		},
		{
			"buffer":0,
			"byteLength":704,
			"byteOffset":697988,
			"target":34962
		},
		{
			"buffer":0,
			"byteLength":704,
			"byteOffset":698692,
			"target":34962
		},
		{
			"buffer":0,
			"byteLength":276,
			"byteOffset":699396,
			"target":34963
		},
		{
			"buffer":0,
			"byteLength":112800,
			"byteOffset":699672,
			"target":34962
		},
		{
			"buffer":0,
			"byteLength":112800,
			"byteOffset":812472,
			"target":34962
		},
		{
			"buffer":0,
			"byteLength":75200,
			"byteOffset":925272,
			"target":34962
		},
		{
			"buffer":0,
			"byteLength":75200,
			"byteOffset":1000472,
			"target":34962
		},
		{
			"buffer":0,
			"byteLength":75200,
			"byteOffset":1075672,
			"target":34962
		},
		{
			"buffer":0,
			"byteLength":75200,
			"byteOffset":1150872,
			"target":34962
		},
		{
			"buffer":0,
			"byteLength":51096,
			"byteOffset":1226072,
			"target":34963
		},
		{
			"buffer":0,
			"byteLength":229092,
			"byteOffset":1277168,
			"target":34962
		},
		{
			"buffer":0,
			"byteLength":229092,
			"byteOffset":1506260,
			"target":34962
		},
		{
			"buffer":0,
			"byteLength":152728,
			"byteOffset":1735352,
			"target":34962
		},
		{
			"buffer":0,
			"byteLength":152728,
			"byteOffset":1888080,
			"target":34962
		},
		{
			"buffer":0,
			"byteLength":152728,
			"byteOffset":2040808,
			"target":34962
		},
		{
			"buffer":0,
			"byteLength":152728,
			"byteOffset":2193536,
			"target":34962
		},
		{
			"buffer":0,
			"byteLength":126840,
			"byteOffset":2346264,
			"target":34963
		},
		{
			"buffer":0,
			"byteLength":81288,
			"byteOffset":2473104,
			"target":34962
		},
		{
			"buffer":0,
			"byteLength":81288,
			"byteOffset":2554392,
			"target":34962
		},
		{
			"buffer":0,
			"byteLength":54192,
			"byteOffset":2635680,
			"target":34962
		},
		{
			"buffer":0,
			"byteLength":54192,
			"byteOffset":2689872,
			"target":34962
		},
		{
			"buffer":0,
			"byteLength":54192,
			"byteOffset":2744064,
			"target":34962
		},
		{
			"buffer":0,
			"byteLength":54192,
			"byteOffset":2798256,
			"target":34962
		},
		{
			"buffer":0,
			"byteLength":55020,
			"byteOffset":2852448,
			"target":34963
		},
		{
			"buffer":0,
			"byteLength":2760,
			"byteOffset":2907468,
			"target":34962
		},
		{
			"buffer":0,
			"byteLength":2760,
			"byteOffset":2910228,
			"target":34962
		},
		{
			"buffer":0,
			"byteLength":1840,
			"byteOffset":2912988,
			"target":34962
		},
		{
			"buffer":0,
			"byteLength":1840,
			"byteOffset":2914828,
			"target":34962
		},
		{
			"buffer":0,
			"byteLength":1840,
			"byteOffset":2916668,
			"target":34962
		},
		{
			"buffer":0,
			"byteLength":1840,
			"byteOffset":2918508,
			"target":34962
		},
		{
			"buffer":0,
			"byteLength":1728,
			"byteOffset":2920348,
			"target":34963
		},
		{
			"buffer":0,
			"byteLength":48,
			"byteOffset":2922076,
			"target":34962
		},
		{
			"buffer":0,
			"byteLength":48,
			"byteOffset":2922124,
			"target":34962
		},
		{
			"buffer":0,
			"byteLength":32,
			"byteOffset":2922172,
			"target":34962
		},
		{
			"buffer":0,
			"byteLength":12,
			"byteOffset":2922204,
			"target":34963
		},
		{
			"buffer":0,
			"byteLength":48,
			"byteOffset":2922216,
			"target":34962
		},
		{
			"buffer":0,
			"byteLength":48,
			"byteOffset":2922264,
			"target":34962
		},
		{
			"buffer":0,
			"byteLength":32,
			"byteOffset":2922312,
			"target":34962
		},
		{
			"buffer":0,
			"byteLength":12,
			"byteOffset":2922344,
			"target":34963
		}
	],
	"samplers":[
		{
			"magFilter":9729,
			"minFilter":9987
		}
	],
	"buffers":[
		{
			"byteLength":2922356,
			"uri":"untitled.bin"
		}
	]
}
