<svg id="Layer_1" data-name="Layer 1" xmlns="http://www.w3.org/2000/svg" viewBox="0 0 297 64.25"><defs><style>.cls-1{fill:#ffd500;}.cls-1,.cls-2,.cls-3{fill-rule:evenodd;}.cls-3{fill:#fff;}</style></defs><path class="cls-1" d="M31.31,7.36a4.12,4.12,0,0,1,.44-.57,4.66,4.66,0,0,1,2-1.46,6.32,6.32,0,0,1,4.12,0,6,6,0,0,1,2.23,1.28,5.33,5.33,0,0,1,1.17,1.57,5.32,5.32,0,0,1,.35,2.05l0,.39a19.85,19.85,0,0,1,4.18,3,20.44,20.44,0,0,1,4.63,6,19.1,19.1,0,0,1,1.44,7.77A31.26,31.26,0,0,1,50,37.94Q45.8,50.06,37.47,54.16a21.37,21.37,0,0,1-8.78,2.26,7.8,7.8,0,0,1-2.84,2.09,10,10,0,0,1-7.45.07,9.2,9.2,0,0,1-5.58-4.43A7.37,7.37,0,0,1,12.07,51a18.21,18.21,0,0,1-5.56-7.17Q3.11,36,7.1,24.45A30.35,30.35,0,0,1,13,13.86a18.26,18.26,0,0,1,8-5.45A25.64,25.64,0,0,1,31.31,7.36Z"/><path class="cls-2" d="M29.3,2.25A9.05,9.05,0,0,1,32.19.61l.08,0a11.21,11.21,0,0,1,7.28,0A11,11,0,0,1,43.61,3a9.91,9.91,0,0,1,2.26,3.14,8.25,8.25,0,0,1,.49,1.5,23.91,23.91,0,0,1,2.87,2.27A25.24,25.24,0,0,1,55,17.49a24,24,0,0,1,1.92,9.81,36.63,36.63,0,0,1-2.22,12.26c-3.29,9.57-8.42,15.82-15,19.07a26.86,26.86,0,0,1-8.83,2.62,12.34,12.34,0,0,1-3,1.84,14.89,14.89,0,0,1-11,.2,14,14,0,0,1-8.4-6.9,12.18,12.18,0,0,1-1-2.85,23,23,0,0,1-5.44-7.71c-2.69-6.17-2.7-13.84.45-23A35.71,35.71,0,0,1,9.3,10.53,23.2,23.2,0,0,1,19.51,3.64,31.16,31.16,0,0,1,29.3,2.25Zm2,5.11a4.12,4.12,0,0,1,.44-.57,4.66,4.66,0,0,1,2-1.46,6.32,6.32,0,0,1,4.12,0,6,6,0,0,1,2.23,1.28,5.33,5.33,0,0,1,1.17,1.57,5.32,5.32,0,0,1,.35,2.05l0,.39a19.85,19.85,0,0,1,4.18,3,20.44,20.44,0,0,1,4.63,6,19.1,19.1,0,0,1,1.44,7.77A31.26,31.26,0,0,1,50,37.94Q45.8,50.06,37.47,54.16a21.37,21.37,0,0,1-8.78,2.26,7.8,7.8,0,0,1-2.84,2.09,10,10,0,0,1-7.45.07,9.2,9.2,0,0,1-5.58-4.43A7.37,7.37,0,0,1,12.07,51a18.21,18.21,0,0,1-5.56-7.17Q3.11,36,7.1,24.45A30.35,30.35,0,0,1,13,13.86a18.26,18.26,0,0,1,8-5.45A25.64,25.64,0,0,1,31.31,7.36Z"/><path d="M76.74,55.84a1.79,1.79,0,0,0-.49-1.37,4.5,4.5,0,0,0-1.76-.94,7.51,7.51,0,0,1-1.95-1,3.26,3.26,0,0,1-1-1.14A3.13,3.13,0,0,1,71.2,50a3.16,3.16,0,0,1,1-2.36,3.49,3.49,0,0,1,2.51-.93,3.85,3.85,0,0,1,1.88.47,3.43,3.43,0,0,1,1.29,1.33,4.06,4.06,0,0,1,.44,1.84H76.74a2.45,2.45,0,0,0-.54-1.72,2.27,2.27,0,0,0-3-.11,2,2,0,0,0-.51,1.44,1.7,1.7,0,0,0,.56,1.29,4.8,4.8,0,0,0,1.68.92,5.69,5.69,0,0,1,2.54,1.46,3.2,3.2,0,0,1,.78,2.23,3,3,0,0,1-1,2.36,3.71,3.71,0,0,1-2.58.88,4.12,4.12,0,0,1-1.95-.46,3.42,3.42,0,0,1-1.39-1.3,3.56,3.56,0,0,1-.51-1.9H72.4A2.35,2.35,0,0,0,73,57.13a2.29,2.29,0,0,0,1.71.62,2,2,0,0,0,1.49-.5A1.92,1.92,0,0,0,76.74,55.84Z"/><path d="M79.75,54a4.69,4.69,0,0,1,1-3.08,3.11,3.11,0,0,1,2.51-1.14,3.2,3.2,0,0,1,2.51,1.1,4.61,4.61,0,0,1,1,3v.93a4.61,4.61,0,0,1-.94,3.08,3.35,3.35,0,0,1-5,0,4.65,4.65,0,0,1-1-3Zm1.48.85A3.71,3.71,0,0,0,81.77,57a1.71,1.71,0,0,0,1.46.8c1.29,0,2-.94,2-2.8V54a3.79,3.79,0,0,0-.56-2.17,1.73,1.73,0,0,0-2.9,0A3.79,3.79,0,0,0,81.23,54Z"/><path d="M89.23,58.89V51.13H88.06V49.94h1.17v-1a3.17,3.17,0,0,1,.68-2.14A2.38,2.38,0,0,1,91.79,46a2.74,2.74,0,0,1,.89.13l-.08,1.24a2.71,2.71,0,0,0-.66-.08c-.83,0-1.26.61-1.26,1.79v.85h1.53v1.19H90.68v7.76Z"/><path d="M95.85,47.77v2.17h1.34v1.19H95.85v5.56a1.45,1.45,0,0,0,.17.79.63.63,0,0,0,.59.27,1.74,1.74,0,0,0,.59-.1v1.24a3,3,0,0,1-1,.17,1.5,1.5,0,0,1-1.32-.63,2.84,2.84,0,0,1-.46-1.74V51.13H93V49.94h1.37V47.77Z"/><path d="M105.62,56.31,107,49.94h1.44l-2.19,9h-1.17l-1.74-6.41-1.71,6.41h-1.17l-2.19-9H99.7l1.39,6.22,1.68-6.22h1.15Z"/><path d="M114.53,58.89a3.2,3.2,0,0,1-.19-1,2.31,2.31,0,0,1-2,1.15,2.59,2.59,0,0,1-1.9-.69,2.56,2.56,0,0,1-.68-1.92,2.74,2.74,0,0,1,.92-2.17,3.74,3.74,0,0,1,2.54-.81h1.08v-.95A1.25,1.25,0,0,0,112.88,51a1.54,1.54,0,0,0-1.08.39,1.34,1.34,0,0,0-.41,1h-1.47a2.34,2.34,0,0,1,.4-1.31,2.92,2.92,0,0,1,1.11-1,3.19,3.19,0,0,1,1.52-.36,2.89,2.89,0,0,1,2.09.68,2.68,2.68,0,0,1,.74,2V57a5.57,5.57,0,0,0,.27,1.79v.14Zm-2-1.17a2,2,0,0,0,1-.29,1.93,1.93,0,0,0,.71-.74V54.55h-.83a2.6,2.6,0,0,0-1.64.46,1.49,1.49,0,0,0-.61,1.27,1.66,1.66,0,0,0,.3,1.1A1.4,1.4,0,0,0,112.58,57.72Z"/><path d="M121.77,51.31a2.75,2.75,0,0,0-.66-.06,1.59,1.59,0,0,0-1.57,1.23v6.41h-1.48v-9h1.42l0,.9a1.83,1.83,0,0,1,1.66-1.07,1.25,1.25,0,0,1,.58.12Z"/><path d="M126.25,59.06a3.28,3.28,0,0,1-2.56-1,4.38,4.38,0,0,1-.92-2.93V54a5.13,5.13,0,0,1,.88-3.13,2.87,2.87,0,0,1,2.45-1.14,2.74,2.74,0,0,1,2.33,1,5,5,0,0,1,.8,3.12v1h-5v.2a3.24,3.24,0,0,0,.54,2.08,1.9,1.9,0,0,0,1.56.67,2.66,2.66,0,0,0,1.14-.24,2.91,2.91,0,0,0,.93-.78l.76.93A3.37,3.37,0,0,1,126.25,59.06Zm-.15-8a1.54,1.54,0,0,0-1.36.62,3.71,3.71,0,0,0-.49,1.94h3.52V53.4a3.79,3.79,0,0,0-.45-1.83A1.44,1.44,0,0,0,126.1,51Z"/><path d="M131,61.3l-.86-.61a3.91,3.91,0,0,0,.81-2.22V57.08h1.49v1.2a3.69,3.69,0,0,1-.4,1.66A3.91,3.91,0,0,1,131,61.3Z"/><path d="M141.32,57.81a1.56,1.56,0,0,0,1.17-.46,1.92,1.92,0,0,0,.47-1.29h1.39a3.06,3.06,0,0,1-.92,2.15,2.91,2.91,0,0,1-2.11.85A3.19,3.19,0,0,1,138.77,58a4.84,4.84,0,0,1-.86-3.12v-1a4.82,4.82,0,0,1,.86-3.09,3.15,3.15,0,0,1,2.55-1,2.83,2.83,0,0,1,2.17.87,3.49,3.49,0,0,1,.86,2.37H143a2.47,2.47,0,0,0-.47-1.49,1.51,1.51,0,0,0-1.17-.49,1.7,1.7,0,0,0-1.46.64,3.72,3.72,0,0,0-.49,2.1v1.15a3.81,3.81,0,0,0,.47,2.22A1.66,1.66,0,0,0,141.32,57.81Z"/><path d="M145.71,54a4.69,4.69,0,0,1,.95-3.08,3.09,3.09,0,0,1,2.51-1.14,3.2,3.2,0,0,1,2.51,1.1,4.67,4.67,0,0,1,1,3v.93a4.56,4.56,0,0,1-.95,3.08,3.08,3.08,0,0,1-2.5,1.14,3.14,3.14,0,0,1-2.5-1.1,4.65,4.65,0,0,1-1-3Zm1.48.85a3.71,3.71,0,0,0,.54,2.17,1.7,1.7,0,0,0,1.46.8c1.28,0,1.94-.94,2-2.8V54a3.79,3.79,0,0,0-.56-2.17,1.7,1.7,0,0,0-1.46-.79,1.68,1.68,0,0,0-1.44.79,3.79,3.79,0,0,0-.54,2.17Z"/><path d="M155.91,49.94l0,1a2.6,2.6,0,0,1,2.18-1.14c1.58,0,2.39,1,2.41,3.17v6h-1.46V53a2.36,2.36,0,0,0-.35-1.49,1.22,1.22,0,0,0-1-.44,1.58,1.58,0,0,0-1,.35,2.62,2.62,0,0,0-.69,1v6.51h-1.48v-9Z"/><path d="M167.11,56.6a1.06,1.06,0,0,0-.36-.81,5.82,5.82,0,0,0-1.37-.8,9.56,9.56,0,0,1-1.66-.83,2.69,2.69,0,0,1-.73-.79,2.18,2.18,0,0,1-.24-1.06,2.35,2.35,0,0,1,.8-1.81,2.88,2.88,0,0,1,2-.73,2.91,2.91,0,0,1,2.1.76,2.56,2.56,0,0,1,.8,1.95H167a1.46,1.46,0,0,0-.41-1,1.37,1.37,0,0,0-1-.42,1.39,1.39,0,0,0-1,.34,1.13,1.13,0,0,0-.37.89,1,1,0,0,0,.27.72,4.55,4.55,0,0,0,1.29.71A6.42,6.42,0,0,1,168,54.94a2.14,2.14,0,0,1,.59,1.54,2.34,2.34,0,0,1-.81,1.87,3.58,3.58,0,0,1-4.41-.1,2.61,2.61,0,0,1-.88-2H164a1.61,1.61,0,0,0,.46,1.17,2,2,0,0,0,2.32.1A1.07,1.07,0,0,0,167.11,56.6Z"/><path d="M175,58.11a2.51,2.51,0,0,1-2.13,1,2.15,2.15,0,0,1-1.83-.85,4.08,4.08,0,0,1-.63-2.44V49.94h1.46v5.73c0,1.39.42,2.08,1.25,2.08A1.83,1.83,0,0,0,175,56.57V49.94h1.46v9h-1.39Z"/><rect x="178.75" y="46.18" width="1.46" height="12.71"/><path d="M184.45,47.77v2.17h1.34v1.19h-1.34v5.56a1.45,1.45,0,0,0,.17.79.64.64,0,0,0,.59.27,1.8,1.8,0,0,0,.6-.1l0,1.24a3,3,0,0,1-1,.17,1.52,1.52,0,0,1-1.32-.63,2.91,2.91,0,0,1-.46-1.74V51.13h-1.37V49.94H183V47.77Z"/><path d="M192.15,58.89a3.27,3.27,0,0,1-.18-1,2.32,2.32,0,0,1-2,1.15,2.38,2.38,0,0,1-2.57-2.61,2.73,2.73,0,0,1,.91-2.17,3.79,3.79,0,0,1,2.55-.81H192v-.95a1.52,1.52,0,0,0-.36-1.15,1.51,1.51,0,0,0-1.08-.34,1.52,1.52,0,0,0-1.08.39,1.31,1.31,0,0,0-.41,1h-1.48a2.35,2.35,0,0,1,.41-1.31,2.82,2.82,0,0,1,1.1-1,3.26,3.26,0,0,1,1.53-.36,2.87,2.87,0,0,1,2.08.68,2.68,2.68,0,0,1,.75,2V57a5.57,5.57,0,0,0,.27,1.79v.14Zm-2-1.17a2,2,0,0,0,1-.29,1.93,1.93,0,0,0,.71-.74V54.55h-.83a2.6,2.6,0,0,0-1.64.46,1.49,1.49,0,0,0-.61,1.27,1.66,1.66,0,0,0,.3,1.1A1.37,1.37,0,0,0,190.2,57.72Z"/><path d="M197,49.94l0,1a2.63,2.63,0,0,1,2.19-1.14c1.57,0,2.39,1,2.4,3.17v6h-1.45V53a2.36,2.36,0,0,0-.36-1.49,1.22,1.22,0,0,0-1-.44,1.53,1.53,0,0,0-1,.35,2.53,2.53,0,0,0-.7,1v6.51h-1.47v-9Z"/><path d="M207,57.81a1.56,1.56,0,0,0,1.17-.46,1.82,1.82,0,0,0,.47-1.29H210a3.09,3.09,0,0,1-.91,2.15,3,3,0,0,1-2.12.85A3.17,3.17,0,0,1,204.45,58a4.78,4.78,0,0,1-.87-3.12v-1a4.76,4.76,0,0,1,.87-3.09,3.12,3.12,0,0,1,2.54-1,2.8,2.8,0,0,1,2.17.87A3.49,3.49,0,0,1,210,53h-1.39a2.4,2.4,0,0,0-.47-1.49A1.51,1.51,0,0,0,207,51a1.72,1.72,0,0,0-1.46.64,3.9,3.9,0,0,0-.49,2.1v1.15a3.72,3.72,0,0,0,.48,2.22A1.63,1.63,0,0,0,207,57.81Z"/><path d="M214.15,56.45l1.63-6.51h1.55L214.4,60.16a4,4,0,0,1-.93,1.75,1.9,1.9,0,0,1-1.37.59,2.73,2.73,0,0,1-.77-.12V61.13l.33,0a1.53,1.53,0,0,0,1-.3,2.18,2.18,0,0,0,.57-1l.29-1-2.63-8.88h1.6Z"/><path d="M217.87,61.3l-.87-.61a3.85,3.85,0,0,0,.82-2.22V57.08h1.49v1.2a3.7,3.7,0,0,1-.41,1.66A3.89,3.89,0,0,1,217.87,61.3Z"/><path d="M224.76,54a4.74,4.74,0,0,1,.94-3.08,3.11,3.11,0,0,1,2.51-1.14,3.17,3.17,0,0,1,2.51,1.1,4.67,4.67,0,0,1,1,3v.93a4.61,4.61,0,0,1-.95,3.08,3.35,3.35,0,0,1-5,0,4.59,4.59,0,0,1-1-3Zm1.47.85a3.71,3.71,0,0,0,.54,2.17,1.71,1.71,0,0,0,1.46.8c1.29,0,2-.94,2-2.8V54a3.79,3.79,0,0,0-.56-2.17,1.73,1.73,0,0,0-2.9,0,3.79,3.79,0,0,0-.54,2.17Z"/><path d="M235,49.94l0,1a2.63,2.63,0,0,1,2.19-1.14c1.58,0,2.39,1,2.41,3.17v6h-1.46V53a2.36,2.36,0,0,0-.36-1.49,1.2,1.2,0,0,0-1.05-.44,1.57,1.57,0,0,0-1,.35,2.53,2.53,0,0,0-.7,1v6.51h-1.47v-9Z"/><path d="M241.49,54a5.46,5.46,0,0,1,.78-3.15,2.54,2.54,0,0,1,2.22-1.09,2.28,2.28,0,0,1,2,1V46.18H248V58.89h-1.34l-.08-1a2.28,2.28,0,0,1-2,1.14A2.57,2.57,0,0,1,242.3,58a5.28,5.28,0,0,1-.81-3.06Zm1.47.83a4.35,4.35,0,0,0,.44,2.2,1.59,1.59,0,0,0,1.46.71,1.74,1.74,0,0,0,1.63-1.1V52.14a1.75,1.75,0,0,0-1.61-1.06,1.57,1.57,0,0,0-1.46.69,4.17,4.17,0,0,0-.46,2.17Z"/><path d="M253.38,59.06a3.3,3.3,0,0,1-2.56-1,4.38,4.38,0,0,1-.91-2.93V54a5.06,5.06,0,0,1,.88-3.13,2.86,2.86,0,0,1,2.44-1.14,2.78,2.78,0,0,1,2.34,1,5,5,0,0,1,.8,3.12v1h-5v.2a3.18,3.18,0,0,0,.54,2.08,1.89,1.89,0,0,0,1.56.67,2.62,2.62,0,0,0,1.13-.24,2.94,2.94,0,0,0,.94-.78l.76.93A3.39,3.39,0,0,1,253.38,59.06Zm-.15-8a1.54,1.54,0,0,0-1.36.62,3.91,3.91,0,0,0-.49,1.94h3.53V53.4a3.66,3.66,0,0,0-.46-1.83A1.43,1.43,0,0,0,253.23,51Z"/><path d="M261.83,51.31a2.75,2.75,0,0,0-.66-.06,1.59,1.59,0,0,0-1.57,1.23v6.41h-1.48v-9h1.43l0,.9a1.83,1.83,0,0,1,1.66-1.07,1.25,1.25,0,0,1,.58.12Z"/><path d="M264.64,57.64h4.3v1.25h-6V57.77l4.1-6.57H263V49.94h5.79V51Z"/><path d="M270.29,54a4.74,4.74,0,0,1,.95-3.08,3.11,3.11,0,0,1,2.51-1.14,3.17,3.17,0,0,1,2.51,1.1,4.67,4.67,0,0,1,1,3v.93a4.61,4.61,0,0,1-1,3.08,3.35,3.35,0,0,1-5,0,4.65,4.65,0,0,1-1-3Zm1.48.85a3.71,3.71,0,0,0,.54,2.17,1.71,1.71,0,0,0,1.46.8c1.29,0,2-.94,2-2.8V54a3.79,3.79,0,0,0-.56-2.17,1.73,1.73,0,0,0-2.9,0,3.79,3.79,0,0,0-.54,2.17Z"/><path d="M282.31,59.06a3.3,3.3,0,0,1-2.56-1,4.33,4.33,0,0,1-.91-2.93V54a5.06,5.06,0,0,1,.88-3.13,2.85,2.85,0,0,1,2.44-1.14,2.78,2.78,0,0,1,2.34,1,5.05,5.05,0,0,1,.79,3.12v1h-5v.2a3.18,3.18,0,0,0,.55,2.08,1.89,1.89,0,0,0,1.56.67,2.62,2.62,0,0,0,1.13-.24,2.81,2.81,0,0,0,.93-.78l.77.93A3.39,3.39,0,0,1,282.31,59.06Zm-.15-8a1.54,1.54,0,0,0-1.36.62,3.81,3.81,0,0,0-.49,1.94h3.53V53.4a3.77,3.77,0,0,0-.46-1.83A1.43,1.43,0,0,0,282.16,51Z"/><path d="M289.26,54.79l-.78.9v3.2H287V46.18h1.45v7.61l2.8-3.85H293l-2.84,3.73,3.22,5.22h-1.7Z"/><path d="M294.77,58.09a1,1,0,0,1,.23-.66.91.91,0,0,1,.72-.27.88.88,0,0,1,.71.27.89.89,0,0,1,.25.66.84.84,0,0,1-.25.63.91.91,0,0,1-.71.26,1,1,0,0,1-.72-.26A.9.9,0,0,1,294.77,58.09Z"/><path d="M92.74,39.52V30.47l-4.66-.32v3.2c0,.87-.09,1.46-1,1.46H79.44V14.43c0-1.09.55-1.37,1.33-1.46l1.51-.14V9.13h-11V13l2.61.13V34.4c0,.92-.55,1.19-1.33,1.28l-1.5.14v3.7Z"/><path d="M105.21,36.18c-4.39,0-5-4.57-5-8.82s1.46-7.49,5.07-7.49,4.89,3.15,4.89,8.27C110.19,32.89,108.77,36.18,105.21,36.18ZM94.7,28c0,8.27,4,12.2,10.15,12.2s10.92-4,10.92-12.79c0-10.51-6.81-11.56-10.19-11.56C100.87,15.85,94.7,18.5,94.7,28Z"/><path d="M129.89,20a1.37,1.37,0,0,1,1.05,1.55v1.92l4.11-.32V17.68a17.57,17.57,0,0,0-7.58-1.83c-4.8,0-8.82,2.51-8.82,7.27,0,5.07,3.7,6.21,7.08,7.08,2.47.64,4.48,1.05,4.48,3.24,0,1.92-1.33,2.79-3.61,2.79a8.91,8.91,0,0,1-3-.46,1.37,1.37,0,0,1-1-1.55V32l-4.11.32V38.7c1.92,1,5.53,1.41,8.41,1.41,4.89,0,8.82-2.56,8.82-7.31,0-5-3.93-6.12-7.5-7.13-2.15-.59-4.34-1.23-4.34-3.33,0-1.83,1.46-2.74,3.43-2.74A6.9,6.9,0,0,1,129.89,20Z"/><path d="M142.23,11.69c-1,2.61-2,5.07-5.25,5.35l-.46,3.33h3.25v12.2c0,3.2-.05,7.59,7.08,7.59a10.82,10.82,0,0,0,5.8-1.6L151.28,35a6.06,6.06,0,0,1-3.11,1c-1.87,0-3-.82-3-3.61v-12h5.62l.46-3.83H145.2V11.69Z"/><path d="M183.37,39.52V30.47l-4.66-.32v3.2c0,.87-.09,1.46-1.05,1.46h-7.58V14.43A1.26,1.26,0,0,1,171.4,13l1.51-.14V9.13h-11V13l2.6.13V34.4c0,.92-.55,1.19-1.32,1.28l-1.51.14v3.7Z"/><path d="M196.8,15.85c-7.49,0-11.28,5.94-11.28,12.7s3,11.56,10.78,11.56a13.25,13.25,0,0,0,8-2.56l-1.73-3.7a9.86,9.86,0,0,1-5.76,2c-3.89,0-5.44-2.42-5.62-5.39,5.39,0,13-1.23,13-8.27C204.25,18.13,201.28,15.85,196.8,15.85Zm2.42,6.44c0,3.52-4.79,4.3-8.17,4.34.13-3.38,1.78-6.9,5.43-6.9A2.43,2.43,0,0,1,199.22,22.29Z"/><path d="M206.25,20.24l1.92.13c.87.05,1.14.42,1.14,1.42V34.4h-.05c0,1.14-.45,1.42-1.32,1.51l-1.51.14v3.47h10.79V35.86l-2.47-.13V24.67c0-2.38,1.23-4.62,4.43-4.62,2.92,0,3.15,2.15,3.15,4.94V34.4c0,1.14-.45,1.42-1.32,1.51l-1.51.14v3.47h10.78V35.86l-2.51-.13v-11c0-2.7,1.37-4.71,4.43-4.71s3.15,2.15,3.15,4.94v9.46c0,1.09-.5,1.37-1.32,1.46l-1.51.14v3.47H243.4V35.86l-2.61-.13V23.8c0-5.39-2.56-8-6.85-8A8.15,8.15,0,0,0,227,19.51c-1.05-2.47-3.15-3.66-6.07-3.66A8.15,8.15,0,0,0,214,19.51v-3h-7.72Z"/><path d="M255.68,36.18c-4.38,0-5-4.57-5-8.82s1.47-7.49,5.08-7.49,4.88,3.15,4.88,8.27C260.66,32.89,259.25,36.18,255.68,36.18ZM245.17,28c0,8.27,4,12.2,10.15,12.2s10.92-4,10.92-12.79c0-10.51-6.81-11.56-10.19-11.56C251.34,15.85,245.17,18.5,245.17,28Z"/><path d="M268.12,20.19l1.91.14c.83,0,1.15.41,1.15,1.41V34.4c0,1.14-.46,1.42-1.33,1.51l-1.51.14v3.47h10.88V35.86l-2.61-.13V24.67a4.51,4.51,0,0,1,4.71-4.62c3.11,0,3.75,1.92,3.75,4.94V34.4c0,1.14-.46,1.42-1.33,1.51l-1.51.14v3.47h10.88V35.86l-2.61-.13V23.8c0-5.39-2.69-8-7.26-8a9,9,0,0,0-7.4,3.66v-3h-7.72Z"/><path class="cls-2" d="M23.87,15.26,27.52,29.1A2.31,2.31,0,0,0,29,30.69a2.38,2.38,0,0,0,2.15-.19l12-7.77-12,7.77A2.33,2.33,0,0,0,30,32.33a2.53,2.53,0,0,0,.85,2L42,43.38,30.86,34.31a2.32,2.32,0,0,0-2.08-.43,2.48,2.48,0,0,0-1.64,1.42L22,48.65,27.14,35.3A2.4,2.4,0,0,0,27,33.14a2.35,2.35,0,0,0-1.87-1L10.8,31.27l14.28.82a2.34,2.34,0,0,0,2-.89,2.3,2.3,0,0,0,.48-2.1Z"/><path class="cls-2" d="M28.88,28.74a1,1,0,0,0,1.45.56l12.06-7.78,1.52,2.41L31.85,31.66a1.16,1.16,0,0,0-.41.77,1,1,0,0,0,.35.79L42.9,42.29l-1.82,2.16L30,35.43a.89.89,0,0,0-.85-.19.87.87,0,0,0-.64.59L23.3,49.15l-2.65-1L25.84,34.8a1,1,0,0,0-.09-.87,1.16,1.16,0,0,0-.73-.46L10.71,32.7l.14-2.85,14.32.81a1,1,0,0,0,.79-.35,1,1,0,0,0,.16-.84L22.46,15.63l2.76-.73ZM28.27,32c0,.06-.06.11-.11.12a.52.52,0,0,1-.14.18c.06,0,.07.08.14.15a.15.15,0,0,0,.07.12l.18,0,.18,0s0-.1,0-.14a.29.29,0,0,0,0-.19l-.16-.1A.27.27,0,0,1,28.27,32Z"/><path class="cls-3" d="M22.27,20.14l0-.12c-.32-1.23,1.58-4.76,1.58-4.76s3.41,2.2,3.73,3.42l0,.13,0,.12c.32,1.23-1.58,4.76-1.58,4.76s-3.41-2.2-3.73-3.42Z"/><path class="cls-2" d="M19.16,21l0-.12a6.52,6.52,0,0,1,.24-3.33A25,25,0,0,1,21,13.74a3.21,3.21,0,0,1,4.57-1.18,26.68,26.68,0,0,1,3.27,2.52,6.58,6.58,0,0,1,1.83,2.78l.07.25a6.61,6.61,0,0,1-.23,3.33,25.58,25.58,0,0,1-1.62,3.77,3.22,3.22,0,0,1-4.58,1.18A26.94,26.94,0,0,1,21,23.87a6.52,6.52,0,0,1-1.84-2.78Zm3.11-.82,0-.12c-.32-1.23,1.58-4.76,1.58-4.76s3.41,2.2,3.73,3.42l0,.13,0,.12c.32,1.23-1.58,4.76-1.58,4.76s-3.41-2.2-3.73-3.42Z"/><path class="cls-3" d="M36.84,42.78l-.1-.08c-1-.8-1.52-4.77-1.52-4.77s4.05-.23,5,.57l.1.09.1.08c1,.8,1.52,4.77,1.52,4.77s-4,.23-5-.57Z"/><path class="cls-2" d="M34.81,45.27l-.11-.08a6.47,6.47,0,0,1-1.77-2.83,26,26,0,0,1-.9-4,3.22,3.22,0,0,1,3-3.64,27,27,0,0,1,4.12.12A6.63,6.63,0,0,1,42.28,36l.2.17A6.35,6.35,0,0,1,44.25,39a25.32,25.32,0,0,1,.91,4,3.26,3.26,0,0,1-.71,2.48,3.23,3.23,0,0,1-2.3,1.16A25.74,25.74,0,0,1,38,46.53a6.57,6.57,0,0,1-3.12-1.17Zm2-2.49-.1-.08c-1-.8-1.52-4.77-1.52-4.77s4.05-.23,5,.57l.1.09.1.08c1,.8,1.52,4.77,1.52,4.77s-4,.23-5-.57Z"/><path class="cls-3" d="M26.07,45.61l.06-.12c.46-1.18-1-4.9-1-4.9s-3.63,1.8-4.09,3l0,.12-.05.12c-.46,1.18,1,4.9,1,4.9s3.64-1.8,4.09-3Z"/><path class="cls-2" d="M18,42.53l0-.12a6.65,6.65,0,0,1,2.14-2.56,26.35,26.35,0,0,1,3.52-2.14,3.22,3.22,0,0,1,2.58-.12,3.18,3.18,0,0,1,1.83,1.8,26,26,0,0,1,1.2,3.92,6.59,6.59,0,0,1-.14,3.34l-.1.24a6.45,6.45,0,0,1-2.13,2.56,26.17,26.17,0,0,1-3.53,2.14A3.22,3.22,0,0,1,19,49.91,25.22,25.22,0,0,1,17.77,46a6.48,6.48,0,0,1,.14-3.34Zm8.11,3.08.06-.12c.46-1.18-1-4.9-1-4.9s-3.63,1.8-4.09,3l0,.12-.05.12c-.46,1.18,1,4.9,1,4.9s3.64-1.8,4.09-3Z"/><path class="cls-3" d="M15.16,28.8H15c-1.27-.07-4.33,2.51-4.33,2.51s2.84,2.89,4.11,3h.26c1.26.07,4.33-2.51,4.33-2.51s-2.85-2.89-4.11-3Z"/><path class="cls-2" d="M14.77,37.47h-.13a6.62,6.62,0,0,1-3.1-1.23,26.07,26.07,0,0,1-3.13-2.68,3.22,3.22,0,0,1,.22-4.72A25.29,25.29,0,0,1,12,26.49a6.53,6.53,0,0,1,3.22-.92l.25,0a6.44,6.44,0,0,1,3.1,1.23,25.66,25.66,0,0,1,3.14,2.68,3.22,3.22,0,0,1-.22,4.72,26,26,0,0,1-3.36,2.35,6.49,6.49,0,0,1-3.21.91Zm.39-8.67H15c-1.27-.07-4.33,2.51-4.33,2.51s2.84,2.89,4.11,3h.26c1.26.07,4.33-2.51,4.33-2.51s-2.85-2.89-4.11-3Z"/><path class="cls-3" d="M38,22.8l.1-.08c1.07-.68,5,.05,5,.05s-1,3.92-2.11,4.6l-.12.06-.1.08c-1.07.68-5-.05-5-.05s1-3.92,2.11-4.6Z"/><path class="cls-2" d="M36.27,20.08l.1-.07a6.6,6.6,0,0,1,3.25-.8,25.63,25.63,0,0,1,4.08.4,3.21,3.21,0,0,1,2.52,4,26.71,26.71,0,0,1-1.4,3.88,6.68,6.68,0,0,1-2.09,2.6l-.22.14a6.47,6.47,0,0,1-3.25.79,24.9,24.9,0,0,1-4.08-.39,3.22,3.22,0,0,1-2.52-4,26.64,26.64,0,0,1,1.4-3.89,6.64,6.64,0,0,1,2.09-2.59ZM38,22.8l.1-.08c1.07-.68,5,.05,5,.05s-1,3.92-2.11,4.6l-.12.06-.1.08c-1.07.68-5-.05-5-.05s1-3.92,2.11-4.6Z"/></svg>