<?xml version="1.0" encoding="UTF-8" standalone="no"?>
<!DOCTYPE svg PUBLIC "-//W3C//DTD SVG 1.1//EN" "http://www.w3.org/Graphics/SVG/1.1/DTD/svg11.dtd">
<svg width="100%" height="100%" viewBox="0 0 992 1267" version="1.1" xmlns="http://www.w3.org/2000/svg" xmlns:xlink="http://www.w3.org/1999/xlink" xml:space="preserve" xmlns:serif="http://www.serif.com/" style="fill-rule:evenodd;clip-rule:evenodd;stroke-linejoin:round;stroke-miterlimit:2;">
    <g transform="matrix(4.16667,0,0,4.16667,0,0)">
        <path d="M0,303.746L0,267.314L16.303,267.314C23.743,267.314 27.462,270.736 27.462,277.582C27.462,285.003 22.375,289.494 12.202,291.058L11.233,285.045C17.348,283.941 20.404,281.522 20.404,277.785C20.404,274.764 18.893,273.252 15.869,273.252L6.75,273.252L6.75,303.746L0,303.746Z" style="fill-rule:nonzero;"/>
        <path d="M60.103,298.139C67.439,298.139 71.108,293.903 71.108,285.429C71.108,277.09 67.439,272.92 60.103,272.92C52.579,272.92 48.817,277.09 48.817,285.429C48.817,293.903 52.579,298.139 60.103,298.139ZM41.812,285.581C41.812,273.232 47.908,267.06 60.103,267.06C72.11,267.06 78.114,273.232 78.114,285.581C78.114,297.861 72.11,304 60.103,304C48.451,304 42.354,297.861 41.812,285.581Z" style="fill-rule:nonzero;"/>
        <path d="M119.467,267.314L119.467,273.176L109.022,273.176L109.022,303.746L102.272,303.746L102.272,273.176L91.826,273.176L91.826,267.314L119.467,267.314Z" style="fill-rule:nonzero;"/>
        <path d="M158.274,267.314L158.274,273.176L147.829,273.176L147.829,303.746L141.078,303.746L141.078,273.176L130.632,273.176L130.632,267.314L158.274,267.314Z" style="fill-rule:nonzero;"/>
        <path d="M180.01,267.314L180.01,297.885L194.481,297.885L194.481,303.746L173.259,303.746L173.259,267.314L180.01,267.314Z" style="fill-rule:nonzero;"/>
        <path d="M236.956,267.314L236.956,273.125L218.715,273.125L218.715,282.296L236.088,282.296L236.088,288.332L218.638,288.332L218.638,297.885L237.312,297.885L237.312,303.746L212.015,303.746L212.015,267.314L236.956,267.314Z" style="fill-rule:nonzero;"/>
        <path d="M157.904,214.27L157.904,248.652L91.783,248.652L91.783,171.065L98.023,175.136L98.023,182.616L97.983,182.595L97.983,242.455L151.706,242.455L151.706,221.935L151.725,221.935L151.725,217.659L111.868,191.646L111.868,184.186L157.904,214.27Z" style="fill-rule:nonzero;"/>
        <path d="M157.904,104.8L157.904,187.389L151.706,183.338L151.706,183.318L151.519,183.194L151.519,175.776L151.706,175.901L151.706,107.363L132.077,87.733L132.077,6.902L117.612,6.902L117.612,87.733L97.983,107.363L97.983,140.692L137.655,166.685L137.655,174.103L91.783,144.038L91.783,104.8L111.414,85.171L111.414,0.703L138.276,0.703L138.276,85.171L157.904,104.8Z" style="fill-rule:nonzero;"/>
    </g>
</svg>
