<?xml version="1.0" encoding="UTF-8"?><svg id="Layer_1" xmlns="http://www.w3.org/2000/svg" viewBox="0 0 138.76 48"><defs><style>.cls-1{fill:#fff;}</style></defs><path class="cls-1" d="M31.98,1.14V11.74h-.33c-.56-1.06-4.69-7.37-13.15-7.37h-6.65V23.01h3.52c7.65,0,9.71-2.64,10.7-3.24h.33v9.44h-.33c-.99-.58-3.05-3.31-10.7-3.31h-3.52v10.83c0,4.59,1.56,9.59,1.76,10.4v.27H0v-.27c.2-.81,1.76-5.81,1.76-10.4V11.81C1.76,7.22,.2,2.22,0,1.41v-.27H31.98ZM41.61,.05c-3.17,0-5.74,2.57-5.74,5.74s2.57,5.74,5.74,5.74,5.74-2.57,5.74-5.74S44.78,.05,41.61,.05Zm-6,47.07c.13-.81,1.69-5.81,1.69-10.4v-11.91c0-4.59-1.5-9.59-1.69-10.4v-.27h11.13v22.57c0,4.59,1.56,9.59,1.76,10.4v.27h-12.89v-.27Zm103.14-4.66c-.46,3.11-2.86,5.4-6.58,5.4-3.52,0-5.92-1.89-6.84-5.27-1.63,2.63-4.88,5.4-9.9,5.4-6.84,0-10.48-5.4-10.48-10.67,0-7.22,6.9-11.55,14.78-10.8,1.69,.07,3.71,.41,5.27,1.01v-3.98c0-4.86-1.11-7.63-3.39-7.63-3.84,0-13.09,7.7-13.87,8.85h-.33V15.46c5.73-1.69,11.2-2.5,14.78-2.5,8.59,0,12.3,4.73,12.3,11.21v13.98c0,3.85,1.11,5.54,4.1,4.12l.13,.2Zm-13.74-12.9c-.39,0-.85,0-1.37-.07-5.86-.74-8.79,2.43-8.79,6.48s2.34,6.62,5.79,6.62c1.63,0,3.13-.74,4.36-2.09v-10.94Zm-25.83,7.1V0h-4.52l-.2,.35-4.79,8.29v27.26c-1.4,1.28-4.85,3.87-9.16,3.98-2.24,.06-5.14-.57-7.5-2.39l-1.56,2.69-3.12,5.41h0c1.88,1.27,4.68,2.41,8.54,2.41,8.03,0,11.79-6.91,12.8-9.12,.01,4.69,1.82,6.78,2.47,8.46h8.72v-.27c-.19-.81-1.69-5.81-1.69-10.4Zm-13.38-21.31l-4.68,8.1c-2.36-1.82-5.27-2.45-7.5-2.39-4.31,.11-7.76,2.7-9.15,3.98v11.67c0,4.59,1.56,9.59,1.76,10.4v.27h-12.89v-.27c.13-.81,1.69-5.81,1.69-10.4v-11.91c0-4.59-1.56-9.59-1.69-10.4v-.27h11.13v7.93c1.01-2.2,4.76-9.12,12.79-9.12,3.86,0,6.66,1.13,8.54,2.41Z"/></svg>