<svg enable-background="new 0 0 99 154.8" viewBox="0 0 99 154.8" xmlns="http://www.w3.org/2000/svg" xmlns:xlink="http://www.w3.org/1999/xlink"><clipPath id="a"><path d="m0 0h99v154.8h-99z"/></clipPath><path d="m0 0v25.4l99 33.1v-58.5z" fill="#002882"/><path d="m0 121.7 99 33.1v-88.4l-99-33.1z" fill="#6396c6"/><g clip-path="url(#a)"><g enable-background="new" fill="#fff"><path d="m59.3 19.6v-7.6l-3.7 6.2h-1.3l-3.7-6.1v7.4h-2.7v-12.5h2.4l4.7 7.8 4.6-7.8h2.4v12.6z"/><path d="m69.6 14.6-1.7 1.8v3.2h-2.9v-12.6h2.9v5.9l5.6-5.9h3.2l-5.2 5.6 5.5 7h-3.4z"/><path d="m89.9 16.1c0 2.2-1.7 3.4-5 3.4h-6.5v-12.5h6.2c3.2 0 4.8 1.3 4.8 3.3 0 1.3-.6 2.2-1.7 2.8 1.3.4 2.2 1.5 2.2 3zm-8.6-6.9v3h2.9c1.4 0 2.2-.5 2.2-1.5s-.8-1.5-2.2-1.5zm5.7 6.6c0-1.1-.8-1.6-2.3-1.6h-3.4v3.1h3.4c1.5.1 2.3-.4 2.3-1.5z"/></g></g><g fill="#fff"><g enable-background="new"><path d="m7.4 73c0-3.8 2.9-6.5 6.8-6.5 2.2 0 4 .8 5.2 2.2l-1.9 1.7c-.8-1-1.9-1.5-3.2-1.5-2.4 0-4 1.7-4 4s1.7 4 4 4c1.3 0 2.3-.5 3.2-1.5l1.9 1.7c-1.2 1.5-3 2.2-5.2 2.2-3.9.2-6.8-2.5-6.8-6.3z"/><path d="m30.8 69.6-4.4 10.3c-.9 2.3-2.3 3-4 3-1 0-2.1-.3-2.7-.9l1-2c.4.4 1 .6 1.6.6.8 0 1.2-.3 1.6-1.2v-.1l-4.2-9.8h2.9l2.7 6.6 2.7-6.6h2.8z"/><path d="m42.5 74.4c0 3-2.1 5-4.8 5-1.3 0-2.3-.4-3-1.3v1.1h-2.7v-13.3h2.8v4.7c.7-.8 1.7-1.2 2.9-1.2 2.7.1 4.8 2 4.8 5zm-2.9 0c0-1.7-1.1-2.7-2.5-2.7s-2.5 1-2.5 2.7 1.1 2.7 2.5 2.7c1.5 0 2.5-1 2.5-2.7z"/><path d="m53.8 75.2h-7.3c.3 1.2 1.3 1.9 2.8 1.9 1 0 1.8-.3 2.4-.9l1.5 1.6c-.9 1-2.3 1.6-4 1.6-3.3 0-5.5-2.1-5.5-5s2.2-5 5.2-5c2.8 0 5 1.9 5 5-.1.3-.1.6-.1.8zm-7.4-1.6h4.8c-.2-1.2-1.1-2-2.4-2s-2.2.8-2.4 2z"/><path d="m61.7 69.5v2.5c-.2 0-.4 0-.6 0-1.5 0-2.6.8-2.6 2.7v4.6h-2.8v-9.7h2.7v1.3c.7-1 1.8-1.4 3.3-1.4z"/></g><g enable-background="new"><path d="m7.4 91.7c0-3.8 2.9-6.5 6.8-6.5 2.2 0 4 .8 5.2 2.2l-1.9 1.7c-.8-1-1.9-1.5-3.2-1.5-2.4 0-4 1.7-4 4s1.7 4 4 4c1.3 0 2.3-.5 3.2-1.5l1.9 1.7c-1.2 1.5-3 2.2-5.2 2.2-3.9.2-6.8-2.5-6.8-6.3z"/><path d="m29.6 92.5v5.5h-2.6v-1.2c-.5.9-1.5 1.4-3 1.4-2.3 0-3.6-1.3-3.6-2.9 0-1.7 1.2-2.9 4.2-2.9h2.2c0-1.2-.7-1.9-2.2-1.9-1 0-2.1.3-2.8.9l-1-2c1.1-.8 2.6-1.2 4.2-1.2 2.9 0 4.6 1.3 4.6 4.3zm-2.8 2.4v-1h-1.9c-1.3 0-1.7.5-1.7 1.1 0 .7.6 1.2 1.6 1.2.9.1 1.7-.4 2-1.3z"/><path d="m48.5 92.5v5.5h-2.8v-5.1c0-1.6-.7-2.3-1.8-2.3-1.3 0-2.1.8-2.1 2.5v4.9h-2.8v-5.1c0-1.6-.7-2.3-1.8-2.3-1.2 0-2.1.8-2.1 2.5v4.9h-2.8v-9.7h2.7v1.1c.7-.8 1.8-1.3 3-1.3 1.4 0 2.5.5 3.2 1.6.8-1 2-1.6 3.5-1.6 2.2.1 3.8 1.4 3.8 4.4z"/><path d="m61.6 93.2c0 3-2.1 5-4.8 5-1.2 0-2.2-.4-2.9-1.2v4.5h-2.8v-13.2h2.7v1.1c.7-.8 1.7-1.3 3-1.3 2.7.1 4.8 2 4.8 5.1zm-2.8 0c0-1.7-1.1-2.7-2.5-2.7s-2.5 1-2.5 2.7 1.1 2.7 2.5 2.7c1.4-.1 2.5-1.1 2.5-2.7z"/><path d="m73.2 88.3v9.7h-2.7v-1.2c-.7.8-1.8 1.3-3 1.3-2.4 0-4.1-1.4-4.1-4.4v-5.5h2.8v5.1c0 1.6.7 2.3 2 2.3s2.2-.8 2.2-2.6v-4.8h2.8z"/><path d="m74.9 97.1.9-2c.9.6 2.2.9 3.4.9 1.3 0 1.8-.3 1.8-.9 0-1.6-5.9 0-5.9-3.8 0-1.8 1.7-3.1 4.5-3.1 1.3 0 2.8.3 3.7.8l-.9 2c-1-.5-1.9-.7-2.8-.7-1.3 0-1.8.4-1.8.9 0 1.7 5.9.1 5.9 3.9 0 1.8-1.7 3.1-4.6 3.1-1.6 0-3.3-.5-4.2-1.1z"/></g></g></svg>