<svg height="34.447" viewBox="0 0 242.515 34.447" width="242.515" xmlns="http://www.w3.org/2000/svg"><g fill="#fff"><path d="m57.242 51.913a17.374 17.374 0 0 1 -6.665-1.275 16.406 16.406 0 0 1 -5.417-3.565 17.1 17.1 0 0 1 -3.648-5.444 17.287 17.287 0 0 1 -1.342-6.829v-.1a17.276 17.276 0 0 1 4.978-12.232 16.571 16.571 0 0 1 5.513-3.661 18.135 18.135 0 0 1 6.98-1.33 20.108 20.108 0 0 1 4.635.494 16.347 16.347 0 0 1 3.812 1.412 15.406 15.406 0 0 1 3.127 2.194 18.308 18.308 0 0 1 2.485 2.786l-6.911 5.348a12.1 12.1 0 0 0 -3.127-2.839 7.707 7.707 0 0 0 -4.114-1.042 7.417 7.417 0 0 0 -3.2.686 7.589 7.589 0 0 0 -2.482 1.865 8.623 8.623 0 0 0 -1.632 2.784 9.693 9.693 0 0 0 -.59 3.4v.1a10.1 10.1 0 0 0 .59 3.483 8.613 8.613 0 0 0 1.632 2.811 7.735 7.735 0 0 0 2.482 1.865 7.417 7.417 0 0 0 3.2.686 9 9 0 0 0 2.345-.288 7.5 7.5 0 0 0 1.947-.823 11.144 11.144 0 0 0 1.66-1.279 19.658 19.658 0 0 0 1.536-1.632l6.911 4.923a24.482 24.482 0 0 1 -2.578 2.976 14.654 14.654 0 0 1 -3.169 2.359 16.931 16.931 0 0 1 -3.977 1.563 18.759 18.759 0 0 1 -4.978.6" transform="translate(-40.17 -17.479)"></path><path d="m347.633 28.146a17.069 17.069 0 0 0 -3.716-5.444 17.257 17.257 0 0 0 -5.636-3.661 18.286 18.286 0 0 0 -7.09-1.344 18.492 18.492 0 0 0 -7.09 1.344 17.808 17.808 0 0 0 -5.677 3.689 16.856 16.856 0 0 0 -5.1 12.177v.093a16.679 16.679 0 0 0 1.344 6.665 16.851 16.851 0 0 0 3.716 5.444 17.341 17.341 0 0 0 5.622 3.661 19.373 19.373 0 0 0 14.179 0 17.808 17.808 0 0 0 5.677-3.689 16.713 16.713 0 0 0 3.757-5.485 16.957 16.957 0 0 0 1.344-6.692v-.1a16.082 16.082 0 0 0 -1.33-6.665" transform="translate(-278.821 -17.669)"></path><path d="m655.946 22.69v17.5l-13.658-17.5h-8.588v33.1h9.037v-18.152l14.179 18.156h8.05v-33.104z" transform="translate(-558.734 -22.032)"></path><path d="m949.93 22.69v17.5l-13.645-17.5h-8.585v33.1h9.037v-18.152l14.179 18.156h8.05v-33.104z" transform="translate(-815.598 -22.032)"></path><path d="m1221.7 22.69v33.1h26.823v-7.8h-17.786v-5.251h15.893v-7.227h-15.893v-5.019h17.553v-7.8z" transform="translate(-1072.461 -22.032)"></path><path d="m1479.573 51.913a17.373 17.373 0 0 1 -6.665-1.275 16.4 16.4 0 0 1 -5.417-3.565 17.171 17.171 0 0 1 -4.991-12.273v-.1a17.274 17.274 0 0 1 4.978-12.232 16.57 16.57 0 0 1 5.512-3.661 18.136 18.136 0 0 1 6.98-1.33 20.108 20.108 0 0 1 4.635.494 16.347 16.347 0 0 1 3.812 1.412 15.4 15.4 0 0 1 3.126 2.194 18.3 18.3 0 0 1 2.482 2.784l-6.912 5.348a12.088 12.088 0 0 0 -3.126-2.839 7.707 7.707 0 0 0 -4.114-1.042 7.416 7.416 0 0 0 -3.2.686 7.588 7.588 0 0 0 -2.482 1.865 8.621 8.621 0 0 0 -1.632 2.784 9.693 9.693 0 0 0 -.59 3.4v.1a10.1 10.1 0 0 0 .59 3.483 8.611 8.611 0 0 0 1.632 2.811 7.736 7.736 0 0 0 2.482 1.865 7.416 7.416 0 0 0 3.2.686 9 9 0 0 0 2.345-.288 7.21 7.21 0 0 0 1.934-.823 10.469 10.469 0 0 0 1.659-1.275 19.666 19.666 0 0 0 1.536-1.632l6.911 4.923a23.359 23.359 0 0 1 -2.578 2.976 14.66 14.66 0 0 1 -3.168 2.359 16.929 16.929 0 0 1 -3.977 1.563 18.514 18.514 0 0 1 -4.964.6" transform="translate(-1282.846 -17.479)"></path><path d="m1730.226 22.69v8.036h9.942v25.068h9.174v-25.068h9.928v-8.036z" transform="translate(-1516.755 -22.032)"></path></g><path d="m403.633 101.86a3.914 3.914 0 0 0 -4.333 1.577.612.612 0 1 1 -.974-.74 3.085 3.085 0 0 0 .741-2.935c-1.262-3.922-5.526-4.086-7.3-1.522a8.536 8.536 0 0 0 14.042 9.709 3.975 3.975 0 0 0 -2.18-6.089" fill="#e41f26" transform="translate(-346.039 -86.542)"></path></svg>