<svg xmlns="http://www.w3.org/2000/svg" viewBox="0 0 425.2 148.57"><defs><style>.cls-1{fill:#1d1d1b;}.cls-2{fill:#76b82a;}</style></defs><title>Middel 1</title><g id="Laag_2" data-name="Laag 2"><g id="Laag_1-2" data-name="Laag 1"><path class="cls-1" d="M230.83,103.5c0,17.92.38,32.06-29.8,32.06-30.36,0-30.36-14.14-30.36-31.3V42.58H156.53v61.29c0,27.72,4.15,44.69,44.5,44.69,40.17,0,43.75-17,43.75-45.26V42.58h-14Z"/><polygon class="cls-1" points="69.78 126.13 19.24 6.94 0 6.94 0 146.68 14.14 146.68 14.14 31.65 63.36 146.68 75.81 146.68 125.03 31.65 125.03 146.68 139.55 146.68 139.55 6.94 120.69 6.94 69.78 126.13"/><path class="cls-1" d="M274.77,120.28V.34H260.62V121.79c0,17.72,4.72,25.08,21.69,25.08a90.18,90.18,0,0,0,9.05-.38V134h-4.53c-10.75,0-12.07-3.58-12.07-13.77"/><rect class="cls-1" x="360.76" y="27.91" width="14.14" height="118.77"/><path class="cls-1" d="M320.78,118.21V68.78H306.64V119.9c0,17.54,4.34,27,27.72,27,2.07,0,13.58,0,15.09-.19V134H336.62c-14.52,0-15.84-6.22-15.84-15.84"/><rect class="cls-1" x="360.76" y="0.34" width="14.33" height="20.37"/><polygon class="cls-2" points="336.44 28 320.78 28 320.78 0 306.64 0 306.64 28 290.68 28 290.68 42.15 306.64 42.15 306.64 69.54 320.78 69.54 320.78 42.15 336.44 42.15 336.44 28"/><path class="cls-2" d="M388.17,146.5V128.29c0-12.54,5.39-15.62,12.83-15.62s13.57,2.84,13.57,16.21v7.74h9.89v9.89Zm18-18.07c0-4.11-1.22-5.58-4.65-5.58-3.62,0-4.75,1.37-4.75,5.63v8.13h9.4Z"/><polygon class="cls-2" points="388.17 106.5 388.17 96.37 415.7 96.37 415.7 79.28 424.46 79.28 424.46 106.5 388.17 106.5"/><path class="cls-2" d="M410.21,74.88h-22V64.69h20.67c4.94,0,7.39-1,7.39-7.4s-2.2-7.39-7.39-7.39H388.17V40.06h22c6.81,0,15,.83,15,17.38s-8.18,17.43-15,17.43"/><path class="cls-2" d="M420,35.71l-7.3-5.09a23.17,23.17,0,0,0,4-13.07c0-6.9-1-7.2-3-7.2-1.81,0-2.25,2.4-2.89,7.54-1.32,10.63-3.38,15.53-11.56,15.53-8.67,0-11.61-5.09-11.6-16.11,0-8.28,2-13,3.72-15.77L399.19,7A21.55,21.55,0,0,0,396.4,17.4c0,5.29.78,5.92,2.55,5.92,2.06,0,2.35-2.59,3-8,1.18-9.06,2.79-15,11.17-15C420.55.31,425,4,425,17.25c0,8.08-2,14.55-5,18.46"/></g></g></svg>