<?xml version="1.0" encoding="UTF-8"?> <!-- Generator: Adobe Illustrator 25.2.3, SVG Export Plug-In . SVG Version: 6.00 Build 0) --> <svg xmlns="http://www.w3.org/2000/svg" xmlns:xlink="http://www.w3.org/1999/xlink" version="1.1" id="Layer_1" x="0px" y="0px" viewBox="0 0 240.9 69" style="enable-background:new 0 0 240.9 69;" xml:space="preserve"> <style type="text/css"> .st0{display:none;} .st1{display:inline;} .st2{fill:#9A1914;} .st3{fill:url(#SVGID_1_);} .st4{fill:url(#SVGID_2_);} .st5{fill:url(#SVGID_3_);} </style> <g id="redT"> <g class="st0"> <g class="st1"> <path class="st2" d="M111,12.7c0,0.8-0.2,1.3-0.4,1.6c-0.3,0.3-0.8,0.5-1.4,0.6v-0.3c0.5,0,0.9,0.2,1.2,0.5 c0.3,0.3,0.5,0.7,0.5,1.1v2.4h-1.7v-2c0-0.5-0.1-0.9-0.4-1.1c-0.2-0.2-0.6-0.2-1.2-0.2H104v3.3h-1.6V10h5.3 c1.3,0,2.1,0.2,2.7,0.7C110.8,11.1,111,11.7,111,12.7z M109.3,12.8v-0.3c0-0.3,0-0.5,0-0.6c-0.1-0.3-0.3-0.5-0.8-0.6 c-0.2,0-0.5-0.1-0.8-0.1h-3.6v3h3.5c0.7,0,1.2-0.1,1.4-0.3C109.2,13.7,109.3,13.3,109.3,12.8z"></path> <path class="st2" d="M118.7,16.6c0,0.4-0.1,0.8-0.2,1c-0.2,0.6-0.7,0.9-1.6,1c-0.4,0.1-0.9,0.1-1.6,0.1c-1.5,0-2.5-0.2-2.9-0.7 s-0.7-1.3-0.7-2.5s0.3-2,0.8-2.4c0.5-0.4,1.5-0.6,2.8-0.6c1.2,0,2.1,0.2,2.6,0.5c0.5,0.4,0.8,1,0.8,1.8v1.2h-5.3v0.3 c0,0.4,0,0.7,0.1,0.8c0.1,0.2,0.2,0.4,0.5,0.5c0.2,0.1,0.7,0.2,1.5,0.2h0.2c0.6,0,1.1-0.1,1.2-0.2c0.1-0.1,0.2-0.3,0.2-0.6v-0.3 L118.7,16.6L118.7,16.6z M117,14.9c0-0.3,0-0.5,0-0.7c0-0.2-0.1-0.4-0.3-0.5c-0.1-0.1-0.3-0.2-0.5-0.2c-0.2,0-0.4,0-0.6,0h-0.4 c-0.5,0-0.8,0-1,0.1c-0.2,0-0.3,0.1-0.5,0.2c-0.2,0.2-0.3,0.6-0.3,1.1L117,14.9L117,14.9z"></path> <path class="st2" d="M126.4,18.6h-1.6v-0.7h0.4c-0.3,0.5-1.2,0.8-2.5,0.8c-1.1,0-1.9-0.2-2.3-0.5c-0.3-0.3-0.6-0.6-0.7-1.1 c-0.1-0.3-0.1-0.8-0.1-1.3c0-0.1,0-0.2,0-0.3c0-1.1,0.3-1.9,0.8-2.3c0.5-0.4,1.3-0.6,2.4-0.6c1.4,0,2.3,0.3,2.6,0.8h-0.4v-3.2 h1.6L126.4,18.6L126.4,18.6z M124.9,15.6c0-0.4,0-0.7,0-0.9c-0.1-0.6-0.4-1-0.9-1.1c-0.2-0.1-0.5-0.1-0.9-0.1h-0.2 c-0.3,0-0.6,0-0.7,0.1c-0.4,0.1-0.7,0.4-0.8,0.9c0,0.1,0,0.4-0.1,1v0.2c0,0.3,0,0.6,0.1,1c0.1,0.5,0.4,0.8,1,0.9 c0.2,0,0.4,0,0.8,0c0.3,0,0.6,0,0.7,0c0.3-0.1,0.5-0.2,0.6-0.3c0.2-0.2,0.3-0.5,0.3-0.8C124.8,16.3,124.9,16,124.9,15.6z"></path> <path d="M135.5,11.2h-3.4v7.4h-1.7v-7.4H127v-1.1h8.5L135.5,11.2L135.5,11.2z"></path> <path d="M141.2,16.6c0,0.4-0.1,0.8-0.2,1c-0.2,0.6-0.7,0.9-1.6,1c-0.4,0.1-0.9,0.1-1.6,0.1c-1.5,0-2.5-0.2-2.9-0.7 c-0.5-0.5-0.7-1.3-0.7-2.5s0.3-2,0.8-2.4s1.5-0.6,2.8-0.6c1.2,0,2.1,0.2,2.6,0.5c0.5,0.4,0.8,1,0.8,1.8v1.2h-5.3v0.3 c0,0.4,0,0.7,0.1,0.8c0.1,0.2,0.2,0.4,0.5,0.5c0.2,0.1,0.7,0.2,1.5,0.2h0.2c0.6,0,1.1-0.1,1.2-0.2c0.1-0.1,0.2-0.3,0.2-0.6v-0.3 L141.2,16.6L141.2,16.6z M139.6,14.9c0-0.3,0-0.5,0-0.7c0-0.2-0.1-0.4-0.3-0.5c-0.1-0.1-0.3-0.2-0.5-0.2c-0.2,0-0.4,0-0.6,0h-0.4 c-0.5,0-0.8,0-1,0.1c-0.2,0-0.3,0.1-0.5,0.2c-0.2,0.2-0.3,0.6-0.3,1.1L139.6,14.9L139.6,14.9z"></path> <path d="M149,18.6h-1.6v-0.7l0,0.1l0.2,0.3c-0.2,0.3-1,0.5-2.3,0.5c-1,0-1.7-0.1-2.2-0.3c-0.7-0.3-1.1-0.9-1.1-1.7l0-0.1 c0-0.8,0.3-1.3,0.8-1.5c0.5-0.2,1.3-0.3,2.4-0.3h0.2c0.5,0,0.9,0,1.2,0.1c0.2,0,0.5,0.1,0.7,0.2c0.2,0.1,0.3,0.2,0.3,0.3h-0.4 v-0.9c0-0.2,0-0.3,0-0.4c0-0.1-0.1-0.2-0.1-0.2c-0.1-0.2-0.3-0.3-0.7-0.4c-0.2,0-0.4,0-0.9,0h-0.2c-0.9,0-1.4,0.2-1.5,0.6 c0,0,0,0.2,0,0.3h-1.6c0-0.8,0.2-1.4,0.8-1.7c0.5-0.2,1.3-0.3,2.5-0.3c1.3,0,2.2,0.2,2.7,0.5c0.4,0.3,0.6,0.9,0.6,1.6L149,18.6 L149,18.6z M147.3,16.7c0-0.4-0.3-0.7-1-0.8c-0.2,0-0.5,0-1,0h-0.4c-0.3,0-0.5,0-0.6,0c-0.2,0-0.3,0.1-0.4,0.2 c-0.1,0.1-0.2,0.2-0.2,0.4l-0.1,0.4c0,0.2,0.1,0.3,0.2,0.5c0.1,0.2,0.6,0.3,1.5,0.3c0.9,0,1.5-0.1,1.7-0.4 C147.2,17.2,147.3,17,147.3,16.7z"></path> <path d="M161.7,18.6h-1.6v-3.9c0-0.5-0.1-0.9-0.3-1s-0.5-0.2-1.1-0.2c-0.8,0-1.4,0.1-1.7,0.4c-0.2,0.2-0.4,0.5-0.4,1v3.8h-1.6v-4 c0-0.5-0.1-0.8-0.2-0.9c-0.2-0.2-0.6-0.2-1.2-0.2c-1.3,0-2,0.5-2,1.5v3.6h-1.6v-6.1h1.6V13c0.5-0.4,1.2-0.5,2.1-0.5 c1.2,0,2,0.2,2.4,0.7c0.5-0.5,1.4-0.7,2.5-0.7c0.9,0,1.6,0.1,2,0.4c0.5,0.3,0.8,0.9,0.8,1.8L161.7,18.6L161.7,18.6z"></path> </g> <g class="st1"> <path d="M109.9,23.4h-0.3v-2.7h0.3V23.4z"></path> <path d="M111.7,23.4h-0.3V21h-0.9v-0.3h2.1V21h-0.9V23.4z"></path> <path d="M114.8,21.5c0-0.7,0.3-0.8,1-0.8c0.6,0,1,0,1,0.8h-0.3c0-0.5-0.1-0.5-0.7-0.5S115,21,115,21.4c0,0.5,0.2,0.5,0.8,0.5 c0.6,0,1,0,1,0.8c0,0.8-0.4,0.8-1.1,0.8c-0.7,0-1.1-0.1-1-0.9h0.3c0,0.6,0.1,0.6,0.7,0.6c0.6,0,0.7,0,0.7-0.5 c0-0.5-0.2-0.4-0.7-0.5C115.2,22.1,114.8,22.2,114.8,21.5z"></path> <path d="M117.7,21.9h1.4v0.2h-1.4v1h1.5v0.3h-1.8v-2.7h1.8V21h-1.5V21.9z"></path> <path d="M120.6,23.5c-0.5,0-0.8-0.3-0.8-0.9v-1.1c0-0.8,0.5-0.9,1.2-0.9h0.2c0.6,0,0.8,0.2,0.8,0.8v0.1h-0.3v-0.1 c0-0.4-0.1-0.5-0.5-0.5H121c-0.6,0-0.9,0.1-0.9,0.6v0.8c0,0.6,0,0.9,0.5,0.9h0.4c0.5,0,0.6-0.1,0.6-0.5v-0.2h0.3v0.2 c0,0.6-0.4,0.7-0.9,0.7L120.6,23.5L120.6,23.5z"></path> <path d="M124.8,20.7v2c0,0.7-0.4,0.8-1.1,0.8c-0.6,0-1.1,0-1.1-0.8v-2h0.3v2c0,0.5,0.1,0.5,0.8,0.5c0.5,0,0.8,0,0.8-0.5v-2H124.8 z"></path> <path d="M125.9,23.4h-0.3v-2.7h1.3c0.6,0,0.9,0.2,0.9,0.8c0,0.4,0,0.7-0.5,0.7l0,0c0.3,0,0.5,0.2,0.5,0.5v0.7h-0.3v-0.6 c0-0.3-0.1-0.5-0.5-0.5h-1L125.9,23.4L125.9,23.4z M126.9,22.1c0.5,0,0.5-0.2,0.5-0.6c0-0.4-0.1-0.5-0.5-0.5H126v1.1H126.9z"></path> <path d="M128.9,23.4h-0.3v-2.7h0.3V23.4z"></path> <path d="M130.7,23.4h-0.3V21h-0.9v-0.3h2.1V21h-0.9V23.4z"></path> <path d="M133.4,22.3v1.2h-0.3v-1.2l-1-1.6h0.4l0.8,1.3l0.8-1.3h0.4L133.4,22.3z"></path> <path d="M136.9,21.9h1.4v0.2h-1.4v1h1.5v0.3h-1.8v-2.7h1.8V21h-1.5V21.9z"></path> <path d="M140.3,22l0.9,1.4h-0.4l-0.8-1.3l-0.9,1.3h-0.4l1-1.4l-0.9-1.3h0.4l0.8,1.2l0.8-1.2h0.4L140.3,22z"></path> <path d="M141.8,20.7h1.4c0.5,0,0.6,0.4,0.6,0.8c0,0.2,0,0.9-0.7,0.9h-1.1v1.1h-0.3V20.7z M142.1,21v1.1h0.8c0.4,0,0.6,0,0.6-0.5 S143.4,21,143,21H142.1z"></path> <path d="M144.7,21.9h1.4v0.2h-1.4v1h1.5v0.3h-1.8v-2.7h1.8V21h-1.5V21.9z"></path> <path d="M147.2,23.4h-0.3v-2.7h1.3c0.6,0,0.9,0.2,0.9,0.8c0,0.4,0,0.7-0.5,0.7l0,0c0.3,0,0.5,0.2,0.5,0.5v0.7h-0.3v-0.6 c0-0.3-0.1-0.5-0.5-0.5h-1L147.2,23.4L147.2,23.4z M148.2,22.1c0.5,0,0.5-0.2,0.5-0.6c0-0.4-0.1-0.5-0.5-0.5h-0.9v1.1H148.2z"></path> <path d="M150.8,23.4h-0.3V21h-0.9v-0.3h2.1V21h-0.9V23.4z"></path> <path d="M152.2,21.5c0-0.7,0.3-0.8,1-0.8c0.6,0,1,0,1,0.8h-0.3c0-0.5-0.1-0.5-0.7-0.5c-0.6,0-0.7,0.1-0.7,0.5 c0,0.5,0.2,0.5,0.8,0.5c0.6,0,1,0,1,0.8c0,0.8-0.4,0.8-1.1,0.8s-1.1-0.1-1-0.9h0.3c0,0.6,0.1,0.6,0.7,0.6s0.7,0,0.7-0.5 c0-0.5-0.2-0.4-0.7-0.5C152.6,22.1,152.2,22.2,152.2,21.5z"></path> </g> </g> <g> <radialGradient id="SVGID_1_" cx="59.8953" cy="873.8188" r="37.6062" gradientTransform="matrix(1.0806 0 0 -0.25 -28.6729 282.4619)" gradientUnits="userSpaceOnUse"> <stop offset="0" style="stop-color:#000000;stop-opacity:0.65"></stop> <stop offset="0.1201" style="stop-color:#282828;stop-opacity:0.5719"></stop> <stop offset="0.3658" style="stop-color:#737373;stop-opacity:0.4123"></stop> <stop offset="0.5854" style="stop-color:#AFAFAF;stop-opacity:0.2695"></stop> <stop offset="0.7709" style="stop-color:#DBDBDB;stop-opacity:0.1489"></stop> <stop offset="0.9149" style="stop-color:#F5F5F5;stop-opacity:5.531538e-02"></stop> <stop offset="1" style="stop-color:#FFFFFF;stop-opacity:0"></stop> </radialGradient> <path class="st3" d="M69.1,64c0-1.1-14.8-2-33.1-2S3,62.9,3,64s14.8,2,33,2C54.3,66.1,69.1,65.1,69.1,64z"></path> <linearGradient id="SVGID_2_" gradientUnits="userSpaceOnUse" x1="16.3876" y1="52.3093" x2="63.6144" y2="23.2903" gradientTransform="matrix(1 0 0 -1 0 70)"> <stop offset="0" style="stop-color:#626065"></stop> <stop offset="1" style="stop-color:#3A393B"></stop> </linearGradient> <path class="st4" d="M60.5,13l-0.1-1l-13-4.1l0,0l-5.9-2.3c-0.2,0.4-0.4,0.9-0.6,1.3c-0.3,0.7-0.7,1.5-1.2,2.3 c-2.3,3.7-4.6,6.4-7.1,9.1c-1.3,1.5-2.7,2.9-4.1,4.3c-0.5-0.1-1.1-0.2-1.7-0.2c-3.8,0-7,3.1-7,7s3.1,7,7,7s7-3.1,7-7 c0-0.5-0.1-0.9-0.1-1.4c5.8-6.2,10.5-11.9,12.7-17.1l11,3.5c0.3,2.5,1.3,10.9,1.2,18c-2.1,3.9-9.9,13.3-15.6,18 c-0.9-0.4-1.8-0.6-2.8-0.6c-3.8,0-7,3.1-7,7s3.1,7,7,7s7-3.1,7-7c0-0.1,0-0.1,0-0.2c5.6-4.5,11.5-10,13.3-13.7 C63.4,36,60.8,15.4,60.5,13z"></path> <linearGradient id="SVGID_3_" gradientUnits="userSpaceOnUse" x1="10.2816" y1="39.4238" x2="52.8265" y2="39.4238" gradientTransform="matrix(1 0 0 -1 0 70)"> <stop offset="0" style="stop-color:#E3161B"></stop> <stop offset="1" style="stop-color:#7C170F"></stop> </linearGradient> <path class="st5" d="M52.3,29c-1-2.8-3.7-4.8-6.9-4.8c-0.2,0-0.5,0-0.7,0c-3.7,0.3-6.7,3.5-6.7,7.3c0,0.3,0,0.7,0.1,1 c0,0.2,0.1,0.5,0.2,0.7c-2.5,2.7-5.6,6.1-9.7,10.1c-1.5,1.5-2.9,2.9-4,4.1c-2.3-2.3-5.9-6.3-6.2-7.1c-0.4-0.9-1-3.2-1-9.2l0.2-4.4 c0.2-4.1,0.6-7.8,0.8-9.8l14.9-4.6l7.1-9.4l-28.6,8.8l-0.3,2.2c-0.5,3.7-2.8,22.3,0.3,29.2c1,2.1,3.1,4.7,6.6,8l7.6,7.1l1.1-1.3 c0.6-0.8,1.4-1.6,2.5-2.7c0.9-0.9,1.8-1.8,3-2.9c3.3-3.1,7.9-7.5,12.4-12.6c0.2,0,0.3,0,0.5,0c4.1,0,7.4-3.3,7.4-7.4 C52.8,30.6,52.6,29.8,52.3,29z"></path> <g> <g> <path class="st2" d="M96.1,22.5c0,2.1-0.4,3.7-1.2,4.5C94,28,92.7,28.6,91,28.8V28c1.3,0,2.4,0.4,3.3,1.3 c0.9,0.9,1.4,1.9,1.4,3.2v6.7H91v-5.5c0-1.5-0.4-2.5-1.1-3c-0.6-0.4-1.7-0.6-3.3-0.6h-9.9v9.2H72v-24h14.8c3.5,0,6,0.6,7.5,1.9 C95.5,18.1,96.1,19.9,96.1,22.5z M91.4,22.8V22c0-0.8,0-1.3-0.1-1.7c-0.2-0.9-0.9-1.6-2.1-1.8c-0.6-0.1-1.4-0.2-2.3-0.2H76.8 v8.3h9.7c2,0,3.3-0.3,3.9-0.9C91.1,25.3,91.4,24.3,91.4,22.8z"></path> <path class="st2" d="M117.6,33.4c0,1.2-0.1,2.2-0.4,2.9c-0.6,1.6-2,2.5-4.4,2.9c-1.1,0.2-2.7,0.2-4.5,0.2 c-4.2,0-6.9-0.6-8.2-1.9c-1.3-1.3-1.9-3.6-1.9-7s0.7-5.7,2.2-6.9c1.5-1.1,4.1-1.7,7.8-1.7c3.5,0,5.8,0.4,7.1,1.3 c1.6,1,2.4,2.7,2.4,5.1v3.3h-14.8v0.7c0,1.2,0,1.9,0.1,2.3c0.2,0.6,0.6,1.1,1.3,1.4c0.5,0.3,2,0.4,4.3,0.4h0.7 c1.8,0,3-0.2,3.5-0.6c0.3-0.2,0.5-0.9,0.5-1.8v-0.8H117.6z M113,28.8c0-0.9,0-1.6-0.1-1.9c-0.1-0.6-0.4-1.1-0.8-1.5 c-0.3-0.3-0.8-0.5-1.4-0.5c-0.4,0-1-0.1-1.8-0.1h-1.2c-1.4,0-2.4,0.1-2.8,0.2c-0.5,0.1-1,0.3-1.3,0.6c-0.6,0.6-0.9,1.6-0.9,3.2 L113,28.8L113,28.8z"></path> <path class="st2" d="M139.2,39.2h-4.4v-2h1c-0.9,1.5-3.3,2.2-6.9,2.2c-3,0-5.2-0.5-6.5-1.6c-0.9-0.8-1.6-1.8-2-3.2 c-0.2-0.9-0.3-2.1-0.3-3.7c0-0.3,0-0.6-0.1-0.8c0-3.1,0.7-5.2,2.2-6.4c1.4-1.1,3.6-1.7,6.6-1.7c4,0,6.4,0.7,7.1,2.2h-1.1v-8.9 h4.4L139.2,39.2L139.2,39.2z M134.8,30.7c0-1.1,0-2-0.1-2.5c-0.3-1.8-1.1-2.9-2.5-3.2c-0.7-0.2-1.5-0.2-2.5-0.2h-0.7 c-0.9,0-1.6,0.1-2,0.2c-1.2,0.3-1.9,1.1-2.1,2.6c0,0.3-0.1,1.2-0.2,2.9v0.7c0,0.8,0,1.7,0.2,2.7c0.3,1.5,1.3,2.3,2.9,2.6 c0.4,0.1,1.2,0.1,2.2,0.1c0.9,0,1.6,0,2-0.1c0.8-0.2,1.4-0.4,1.7-0.9c0.5-0.6,0.8-1.3,0.9-2.2C134.8,32.8,134.8,32,134.8,30.7z"></path> <path d="M164.7,18.4h-9.5v20.8h-4.8V18.4h-9.5v-3.2h23.8V18.4z"></path> <path d="M180.6,33.4c0,1.2-0.1,2.2-0.4,2.9c-0.6,1.6-2,2.5-4.4,2.9c-1.1,0.2-2.7,0.2-4.5,0.2c-4.2,0-6.9-0.6-8.2-1.9 c-1.3-1.3-1.9-3.6-1.9-7s0.7-5.7,2.2-6.9c1.5-1.1,4.1-1.7,7.8-1.7c3.5,0,5.8,0.4,7.1,1.3c1.6,1,2.4,2.7,2.4,5.1v3.3h-14.9v0.7 c0,1.2,0,1.9,0.1,2.3c0.2,0.6,0.6,1.1,1.3,1.4c0.5,0.3,2,0.4,4.3,0.4h0.7c1.8,0,3-0.2,3.5-0.6c0.3-0.2,0.5-0.9,0.5-1.8v-0.8 H180.6z M175.9,28.8c0-0.9,0-1.6-0.1-1.9c-0.1-0.6-0.4-1.1-0.8-1.5c-0.3-0.3-0.8-0.5-1.4-0.5c-0.4,0-1-0.1-1.8-0.1h-1.2 c-1.4,0-2.4,0.1-2.8,0.2c-0.5,0.1-1,0.3-1.3,0.6c-0.6,0.6-0.9,1.6-0.9,3.2L175.9,28.8L175.9,28.8z"></path> <path d="M202.1,39.2h-4.5v-2.1l0.1,0.2l0.6,0.8c-0.6,0.9-2.7,1.3-6.4,1.3c-2.8,0-4.8-0.2-6-0.7c-2-0.8-3-2.4-3-4.7l0.1-0.3 c0-2.1,0.8-3.5,2.4-4.2c1.3-0.6,3.5-0.9,6.7-0.9h0.5c1.3,0,2.4,0.1,3.3,0.2c0.7,0.1,1.3,0.3,2,0.6c0.5,0.2,0.8,0.5,0.9,0.8h-1 v-2.4c0-0.4,0-0.8-0.1-1c-0.1-0.3-0.2-0.5-0.3-0.7c-0.3-0.6-1-0.9-2-1.1c-0.4-0.1-1.2-0.1-2.4-0.1h-0.7c-2.6,0-3.9,0.6-4.1,1.8 c0,0.1,0.1,0.5,0.1,1h-4.6c0-2.3,0.7-3.8,2.1-4.7c1.3-0.6,3.6-0.9,7.1-0.9c3.8,0,6.3,0.5,7.6,1.5c1.2,0.9,1.8,2.4,1.8,4.4V39.2z M197.6,33.7c0-1.2-0.9-2-2.7-2.2c-0.6-0.1-1.6-0.1-2.8-0.1h-1.2c-0.8,0-1.4,0-1.7,0.1c-0.4,0.1-0.8,0.2-1,0.5 c-0.2,0.3-0.4,0.6-0.5,1.1l-0.1,1.2c0,0.5,0.2,1,0.6,1.5c0.3,0.5,1.7,0.8,4.1,0.8c2.6,0,4.2-0.3,4.8-1 C197.4,35.1,197.6,34.5,197.6,33.7z"></path> <path d="M237.9,39.2h-4.6V28.3c0-1.4-0.2-2.4-0.8-2.8c-0.5-0.5-1.5-0.7-3-0.7c-2.3,0-3.8,0.3-4.7,1c-0.7,0.6-1,1.5-1,2.7v10.6 h-4.4V28c0-1.3-0.2-2.1-0.7-2.5c-0.5-0.5-1.6-0.7-3.3-0.7c-3.6,0-5.4,1.4-5.4,4.3v10.1h-4.5V22h4.5v1.4c1.4-1,3.5-1.6,6-1.6 c3.4,0,5.6,0.7,6.7,2c1.5-1.4,3.9-2,7.1-2c2.6,0,4.5,0.4,5.7,1.1c1.6,0.9,2.4,2.6,2.4,4.9L237.9,39.2L237.9,39.2z"></path> </g> </g> <g> <path d="M111.3,56.6c-0.5,0.2-1.4,0.5-2.6,0.5c-2.7,0-4.8-1.7-4.8-4.9c0-3.1,2.1-5.1,5.1-5.1c1.2,0,2,0.3,2.3,0.4l-0.3,1 c-0.5-0.2-1.2-0.4-2-0.4c-2.3,0-3.8,1.5-3.8,4c0,2.4,1.4,3.9,3.8,3.9c0.8,0,1.6-0.2,2-0.4L111.3,56.6z"></path> <path d="M115.1,56.9v-4.2l-3.1-5.6h1.4l1.4,2.7c0.4,0.7,0.7,1.3,1,2h0c0.3-0.6,0.6-1.3,1-2l1.4-2.7h1.4l-3.3,5.6v4.2H115.1z"></path> <path d="M120.6,47.3c0.5-0.1,1.4-0.2,2.3-0.2c1.3,0,2.1,0.2,2.7,0.7c0.5,0.4,0.8,0.9,0.8,1.7c0,0.9-0.6,1.8-1.6,2.1v0 c0.9,0.2,2,1,2,2.4c0,0.9-0.3,1.5-0.8,2c-0.7,0.6-1.8,0.9-3.4,0.9c-0.9,0-1.5-0.1-2-0.1L120.6,47.3L120.6,47.3z M121.9,51.3h1.2 c1.3,0,2.1-0.7,2.1-1.6c0-1.2-0.9-1.6-2.1-1.6c-0.6,0-0.9,0-1.1,0.1L121.9,51.3L121.9,51.3z M121.9,56c0.2,0,0.6,0.1,1.1,0.1 c1.3,0,2.5-0.5,2.5-1.9c0-1.3-1.2-1.9-2.5-1.9h-1L121.9,56L121.9,56z"></path> <path d="M133.6,52.3h-3.8v3.5h4.2v1.1h-5.5v-9.8h5.3v1.1h-4v3.1h3.8L133.6,52.3L133.6,52.3z"></path> <path d="M135.6,47.3c0.6-0.1,1.6-0.2,2.4-0.2c1.3,0,2.2,0.2,2.8,0.8c0.5,0.4,0.8,1.1,0.8,1.9c0,1.3-0.8,2.1-1.8,2.5v0 c0.8,0.3,1.2,0.9,1.4,2c0.3,1.4,0.5,2.3,0.8,2.7h-1.3c-0.2-0.3-0.4-1.1-0.6-2.3c-0.3-1.3-0.8-1.9-2-1.9h-1.2V57h-1.3L135.6,47.3 L135.6,47.3z M136.9,51.7h1.3c1.3,0,2.2-0.7,2.2-1.9c0-1.3-0.9-1.8-2.3-1.8c-0.6,0-1,0.1-1.3,0.1L136.9,51.7L136.9,51.7z"></path> <path d="M146.4,55.4c0.6,0.3,1.4,0.6,2.3,0.6c1.3,0,2-0.7,2-1.7c0-0.9-0.5-1.4-1.8-2c-1.6-0.6-2.6-1.4-2.6-2.8 c0-1.5,1.3-2.7,3.2-2.7c1,0,1.7,0.2,2.2,0.5l-0.3,1c-0.3-0.2-1-0.5-1.9-0.5c-1.3,0-1.8,0.8-1.8,1.5c0,0.9,0.6,1.4,2,1.9 c1.6,0.6,2.5,1.4,2.5,2.9c0,1.5-1.1,2.8-3.4,2.8c-0.9,0-2-0.3-2.5-0.6L146.4,55.4z"></path> <path d="M158.8,52.3H155v3.5h4.2v1.1h-5.5v-9.8h5.3v1.1h-4v3.1h3.8L158.8,52.3L158.8,52.3z"></path> <path d="M167.6,56.6c-0.5,0.2-1.4,0.5-2.6,0.5c-2.7,0-4.8-1.7-4.8-4.9c0-3.1,2.1-5.1,5.1-5.1c1.2,0,2,0.3,2.3,0.4l-0.3,1 c-0.5-0.2-1.2-0.4-2-0.4c-2.3,0-3.8,1.5-3.8,4c0,2.4,1.4,3.9,3.8,3.9c0.8,0,1.6-0.2,2-0.4L167.6,56.6z"></path> <path d="M170.5,47.2V53c0,2.2,1,3.1,2.3,3.1c1.5,0,2.4-0.9,2.4-3.1v-5.8h1.3v5.7c0,3-1.6,4.2-3.7,4.2c-2,0-3.5-1.2-3.5-4.2v-5.8 H170.5z"></path> <path d="M178.6,47.3c0.6-0.1,1.6-0.2,2.4-0.2c1.3,0,2.2,0.2,2.8,0.8c0.5,0.4,0.8,1.1,0.8,1.9c0,1.3-0.8,2.1-1.8,2.5v0 c0.8,0.3,1.2,0.9,1.4,2c0.3,1.4,0.5,2.3,0.8,2.7h-1.3c-0.2-0.3-0.4-1.1-0.6-2.3c-0.3-1.3-0.8-1.9-2-1.9h-1.2V57h-1.3L178.6,47.3 L178.6,47.3z M179.9,51.7h1.3c1.3,0,2.2-0.7,2.2-1.9c0-1.3-0.9-1.8-2.3-1.8c-0.6,0-1,0.1-1.3,0.1L179.9,51.7L179.9,51.7z"></path> <path d="M187.7,47.2v9.8h-1.3v-9.8H187.7z"></path> <path d="M191.8,48.2h-3v-1.1h7.2v1.1h-3v8.7h-1.3V48.2z"></path> <path d="M199.7,56.9v-4.2l-3.1-5.6h1.4l1.4,2.7c0.4,0.7,0.7,1.3,1,2h0c0.3-0.6,0.6-1.3,1-2l1.4-2.7h1.4l-3.3,5.6v4.2H199.7z"></path> </g> </g> </g> </svg> 