<svg xmlns="http://www.w3.org/2000/svg" viewBox="0 0 377.2 92.5" preserveAspectRatio="xMaxYMin meet" ><path d="M33.6 92l-11.5-6 21.8-9 22.5-9.3L77.6 63l5.6-2.3.2-.1.1-.1.2-.1c.3-.1.5-.3.7-.4.4-.4.7-.8.9-1.4.2-.5.2-1.1.1-1.6l-.1-.2-.1-.2-.1-.2-.1-.3-.9-2.9L77.2 32l12 6.2 8.7 25.6c.4 1.3-.2 2.6-1.4 3.2L37.6 92.2c-.6.2-1.2.4-1.8.4-.8-.1-1.5-.2-2.2-.6zm-12.9-7.4L.2 24.4c-.6-1.9.3-3.9 2.1-4.6l25.8-11c-1.5 2.6-2.7 5.3-3.7 8.1-1.3 3.7-1.9 7.6-1.9 11.5 0 4.1 1.1 8.1 3.2 11.6 1.1 1.8 2.5 3.4 4 4.8 1.6 1.4 3.4 2.4 5.4 3.2 3.8 1.4 7.9 1.9 12 1.4 3.9-.4 7.7-1.5 11.3-3.2 5.9-2.8 11.2-6.8 15.6-11.6l6.9 19.7 1 2.9.1.4h-.1L76.3 60l-11.1 5-22.3 9.8-22.2 9.8zm295.9-12.4c-2-2-2.3-6-2.2-10.2.1-3.2.5-6.4.8-9.2.3-1.9.5-3.8.9-5.7-.5.2-1 .3-1.5.4-2 .4-4.1.6-6.2.6.1 3.4-.1 9-.1 10.7-.1 5.8-.2 9.7-1 11.3-1.3 3.1-4.4 4.3-8.9 4.3-3.2 0-8.5-1.3-9.2-4.8-.2-1.1-.3-2.1-.3-3.2-3.5 4.6-7.2 7.8-11.8 7.8-1.6 0-3.5-.4-4.2-2.3-.9-2.4-.7-8.1-.5-12.2.1-2.4.3-4.8-.7-6.8-.8-1.7-3.5-1.6-5.3-1.6h-1.1l-.8 20.7c0 .9-.7 1.5-1.6 1.6-1 .1-2.3.1-3.3 0-.9 0-1.6-.8-1.6-1.6 0-2.6.3-6.8.4-10.5l.8-18.5.4-12.3c-.5.2-1.1.5-1.6.8-1.6 1.1-3 2.5-4 4.2v.1c-.5.8-1.4 1.1-2.2 1-1.2-.2-2-1.4-1.7-2.6 0-.2.1-.3.2-.5 1.1-2.5 2.7-4.6 4.8-6.4 2.2-1.9 5-3 7.9-3.2h.1c.3 0 .6 0 .9.1.8.2 1.5.6 1.9 1.3.2.3.4.7.5 1.1.1.5.1 1 0 1.4-.1.5-.1 1-.1 1.5-.2 1.9-.2 3.8-.3 5.6l-.2 4.3c-.1 2.1-.1 4.1-.1 6.2 2.1-3.8 4-7.2 5.6-10.2 1.7-3.6 3.4-6.1 5.2-9.5.6-1 1.8-1.5 2.9-1 .6.2 1.2.5 1.7.8 1.1.6 1.5 1.9.9 3-1 1.9-1.9 3.3-2.6 4.5-2.8 4.8-5.6 9.4-7.2 12.5 4.5.3 6.5 2.8 6.7 7 .2 4.1-.1 5.3 0 7.2 0 1.7-.5 6.8.8 7.2 1.4.3 3-1.1 3.5-1.5 1.2-1 2.3-1.7 5.6-6.4v-3.7c-.1-4.8-.2-8.9 0-13.6.2-3.8 3.2-5.1 7-5.3.6 0 1.6-.1 2.8-.1 3.7 0 9.1.8 9.3 5.7 3.2.7 6.8-.1 10.4-1.7.7-1.7 2.2-3.1 3.9-3.7 1.4-.3 2.9-.5 4.3-.5 2.6 0 5.2.8 6.6 2.7 2.3 3.3 1.5 12.6-2.7 15.7-3.7 2.8-6.2 2.3-9.5 2.5-.6 3.4-1.3 8.4.4 10.3 2.3 2.6 7.5 3.9 17.2-8.5V31c0-.7 0-7.2.1-8.1.1-3.5.7-8.4 3.7-9.8 1.3-.6 2.8-.9 4.2-.9 3 0 6.2 1.2 7 5.3.8 3.9-1.1 8.8-3.2 12.7-1.7 3.2-3.7 6.3-5.8 9.2-.1 2-.1 5.5-.1 6.3 2.1-3.7 5.7-8.6 9.2-8.7 5.3-.1 7.1 2.7 7.1 8.2-.1 5.6-5.5 11.9-9.6 13.1 3.2 4.7 5.6 9 7.2 9.1 1.9.2 3-1.1 6.7-6.3.7-1 2.1-1.3 3.1-.6l.6.6c.6.8.6 1.9 0 2.7-4.5 7.2-7.5 11-10.7 11-1.9-.1-3.7-.9-5-2.2-2.1-2.1-5.8-8.4-8.5-13.5-.1 2.7-.1 9.5 0 13.5 0 1.2-.9 2.3-2.2 2.3h-1.6c-1.2 0-2.2-1-2.2-2.2v-6c-5.1 6.8-10.2 8.7-14.2 8.7-2.8-.5-5.5-1.4-7.7-3.2zM295 44.9c.1 6.9 0 20.9.7 22.2.9 1.6 5.8 1.8 6.3-.7.4-2 .5-9.7.2-18.2-2.2-.3-2.8-.8-3.4-2.3-.6-1.5-.3-3.2.6-4.5h-.9c-2.7 0-3.5 1.5-3.5 3.5zm57.4-1.4c-3.8 3.2-5.9 7.8-6.7 9.5 4.4-.2 7.1-2.4 9.7-6.3 1.1-1.7.1-3.8-1.5-3.8-.6.1-1.1.3-1.5.6zm-27.2-1.4c-2.7.5-3.3 6.7-3.6 9.1 2 .1 3.9.2 5.6-1.2 1.2-.9 1.8-3.3 1.9-4.9.1-2.4-1-3.1-2.5-3.1-.5-.1-.9 0-1.4.1zm19.3-21.3c-.1 2.6-.3 5.6-.1 9.9 1.5-2.9 2.8-5.9 3.8-9 .5-2.7-.4-4-1.5-4s-2.2 1.1-2.2 3.1zm26.2 50.8c0-1.8 1.4-3.2 3.2-3.2 1.8 0 3.2 1.4 3.2 3.2 0 1.8-1.4 3.2-3.2 3.2-1.7 0-3.2-1.4-3.2-3.2zm-153.4.4c-2-2-2.4-6-2.2-10.2.1-3.2.5-6.4.8-9.2.2-2 .5-3.9.9-5.9-2.3.8-4.8.7-6.9-.5-3.8 4.2-5 7.7-7.3 14.3-1.3 4.1-2.2 8.4-2.7 12.7-.1.7-.7 1.3-1.5 1.3-.9.1-2 .1-2.9.1-.9 0-1.5-.7-1.5-1.6v-.1c.1-1.6.3-3.2.4-4.8-4.4 5.6-7 6.2-9.1 6.2-3.2-.1-4.6-.7-5.3-5.6-.9 2.1-2.5 3.8-4.5 4.8-.7.3-1.5.4-2.4.4-2.2 0-4.5-1-5.4-3.1-.2-.5-.4-1.1-.5-1.6-2.7 3.4-4.3 3.7-5.7 4.3-1.8.7-3.7 1-5.7 1-3.6 0-7.2-1.3-7.2-6V68c-3.2 3.8-6.5 6.3-10.7 6.3-1.6 0-3.5-.4-4.2-2.3-.9-2.4-.7-8.1-.5-12.2.1-2.4.3-4.8-.7-6.8-.8-1.7-3.5-1.6-5.3-1.6h-1.1l-.7 20.8c0 .9-.7 1.5-1.6 1.6-1 .1-2.2.1-3.3 0-.9 0-1.6-.8-1.6-1.6.1-2.6.3-6.8.4-10.4l.8-18.5.4-12.3c-.5.2-1.1.5-1.6.8-1.6 1.1-3 2.5-4 4.2v.1c-.5.8-1.4 1.1-2.2 1-1.2-.2-2-1.4-1.7-2.6 0-.2.1-.3.2-.5 1.1-2.5 2.7-4.6 4.8-6.4 2.2-1.9 5-3 7.9-3.2h.1c.3 0 .6 0 .9.1.8.2 1.5.6 1.9 1.3.2.3.4.7.5 1.1.1.5.1 1 0 1.4-.1.5-.1 1-.1 1.5-.2 1.9-.2 3.8-.3 5.6l-.2 4.3c-.1 2.1-.1 4.1-.1 6.2 2.1-3.8 4-7.2 5.6-10.2 1.7-3.6 3.4-6.1 5.2-9.5.6-1 1.8-1.5 2.9-1 .6.2 1.2.5 1.7.8 1.1.6 1.5 1.9.9 3-1 1.9-1.9 3.3-2.6 4.5-2.8 4.8-5.6 9.4-7.2 12.5 4.5.3 6.5 2.8 6.7 7 .2 4.1-.1 5.3 0 7.2 0 1.7-.5 6.8.8 7.2 1.4.3 2.9-1.1 3.5-1.5 1.1-.9 2.1-1.6 5-5.5.5-8.1 1.7-22.6 2.7-35.3.3-3.3-.1-10.3 5.7-12.1 1.2-.4 2.5-.6 3.7-.7 2.2 0 4.6 1 5.6 4.9.8 6.3-.7 9.2-2.9 14.4-1.7 3.8-3.8 6.9-7.5 13.3-.3 3.4-.4 6.7-.9 12.7-.3 4.8-.7 7.8-.2 9.6.5 1.8 2.2 1.5 4.1.9 1.1-.4 3.4-1 7.3-6v-.9c.2-3.3.4-7 .9-10.9.8-6.9 1.5-10.5 5.1-12.8 1.3-.8 2.8-1.3 4.3-1.3 2.3 0 4.4 1.3 5.5 3.3.2-.9.3-1.7.4-2.6.1-.8.8-1.4 1.6-1.4.9 0 1.7.1 2.5.1.9.1 1.5.9 1.5 1.7-1 11.8-2.3 23.9-2.7 28.7-.1 1.3 1.5 1.5 2.2 1 1.6-1.2 3.2-2 7-7.5.7-8.1 1.3-16 1.8-22 .1-.7.7-1.3 1.5-1.3l2.8.3c.7.1 1.3.7 1.3 1.5-.5 6.4-.8 10-.9 12.6 0 .1.1.1.1 0 1.8-4.6 3.8-9 6.2-13.3.2-.3.6-.5 1-.3l.3.3c1 1.8 2.7 3.2 4.8 3.7 1.8.4 3.7 0 5.2-1.1.7-1.6 2.1-2.8 3.7-3.3 1.4-.3 2.9-.5 4.3-.5 2.6 0 5.2.8 6.6 2.7 2.4 3.3 1.5 12.6-2.7 15.7-3.7 2.8-6.2 2.3-9.5 2.5-.6 3.4-1.3 8.4.4 10.3 2.1 2.5 7 3.7 15.7-6.7.8-1 2.2-1.1 3.2-.3.2.1.3.3.4.5.1.1.1.1.2 0 .4.7.4 1.6-.1 2.3-5.9 9.4-11.9 11.9-16.4 11.9-2.7-.3-5.4-1.3-7.6-3zm-42.8-26.9c-1 2.8-1.6 10.1-1.8 15.2-.1 2.9-.1 5.1.2 5.4.4.4 1 .7 1.6.7 1.4 0 3.3-1.1 5.5-4.4.8-7.3 1.1-9.5 1.6-16.6-1.2-2.5-2.6-3.3-3.8-3.3-1.4 0-2.8 1.4-3.3 3zm51.4-3c-2.7.5-3.3 6.7-3.6 9.1 2 .1 3.9.2 5.6-1.2 1.2-.9 1.8-3.3 1.9-4.9.1-2.4-1-3.1-2.5-3.1-.5-.1-1 0-1.4.1zm-68.2-20.8c-.2 2.2-.7 8.8-.9 13.3 2-3.9 3.7-8 4.9-12.2.8-3.1-.1-4.3-1.3-4.3s-2.5 1.2-2.7 3.2zM37 43.4c-3-1.2-5.5-3.3-7.2-6-1.7-2.8-2.7-6-2.8-9.3-.1-3.4.3-6.9 1.3-10.2 1-3.4 2.4-6.6 4.2-9.6l.1-.1 10.8 5.5c1.2.7 1.6 2.2 1 3.4-.8 1.5-1.6 3.1-2.2 4.8-.8 1.9-1.4 3.8-1.9 5.8-.3 1.5-.6 3-.7 4.5 0 .3-.1.7-.1 1.1 0 .4-.1.7-.1 1.1v1.1c0 3.1.7 6.1 2 8.9-1.5 0-3-.4-4.4-1zm22.9-13.7c0-1.9 1.6-3.5 3.5-3.5s3.5 1.6 3.5 3.5-1.6 3.5-3.5 3.5-3.5-1.6-3.5-3.5zM49 25.2c0-1.3 1-2.3 2.3-2.3 1.3 0 2.3 1 2.3 2.3s-1 2.3-2.3 2.3c-1.2 0-2.3-1-2.3-2.3zm4.3-19.4c0-3.2 2.6-5.8 5.8-5.8s5.8 2.6 5.8 5.8c0 3.2-2.6 5.8-5.8 5.8-3.2 0-5.7-2.6-5.8-5.8z" fill="#923057"/></svg>